<?xml version="1.0" encoding="utf-8" standalone="no"?>
<!DOCTYPE svg PUBLIC "-//W3C//DTD SVG 1.1//EN"
  "http://www.w3.org/Graphics/SVG/1.1/DTD/svg11.dtd">
<!-- Created with matplotlib (http://matplotlib.org/) -->
<svg height="360pt" version="1.1" viewBox="0 0 720 360" width="720pt" xmlns="http://www.w3.org/2000/svg" xmlns:xlink="http://www.w3.org/1999/xlink">
 <defs>
  <style type="text/css">
*{stroke-linecap:butt;stroke-linejoin:round;stroke-miterlimit:100000;}
  </style>
 </defs>
 <g id="figure_1">
  <g id="patch_1">
   <path d="M 0 360 
L 720 360 
L 720 0 
L 0 0 
z
" style="fill:#ffffff;"/>
  </g>
  <g id="axes_1">
   <g id="patch_2">
    <path d="M 90 324 
L 343.636364 324 
L 343.636364 36 
L 90 36 
z
" style="fill:#eaeaf2;"/>
   </g>
   <g id="matplotlib.axis_1">
    <g id="xtick_1">
     <g id="line2d_1">
      <path clip-path="url(#p29efc5c285)" d="M 90 324 
L 90 36 
" style="fill:none;stroke:#ffffff;stroke-linecap:round;"/>
     </g>
     <g id="line2d_2">
      <defs>
       <path d="M 0 0 
L 0 0 
" id="m4da8b75361" style="stroke:#262626;"/>
      </defs>
      <g>
       <use style="fill:#262626;stroke:#262626;" x="90.0" xlink:href="#m4da8b75361" y="324.0"/>
      </g>
     </g>
     <g id="line2d_3">
      <g>
       <use style="fill:#262626;stroke:#262626;" x="90.0" xlink:href="#m4da8b75361" y="36.0"/>
      </g>
     </g>
     <g id="text_1">
      <text style="fill:#262626;font-family:Bitstream Vera Sans;font-size:10.0px;font-style:normal;font-weight:400;" transform="translate(92.759375 337.3625)rotate(-90.0)">0</text>
     </g>
    </g>
    <g id="xtick_2">
     <g id="line2d_4">
      <path clip-path="url(#p29efc5c285)" d="M 126.233766 324 
L 126.233766 36 
" style="fill:none;stroke:#ffffff;stroke-linecap:round;"/>
     </g>
     <g id="line2d_5">
      <g>
       <use style="fill:#262626;stroke:#262626;" x="126.233766234" xlink:href="#m4da8b75361" y="324.0"/>
      </g>
     </g>
     <g id="line2d_6">
      <g>
       <use style="fill:#262626;stroke:#262626;" x="126.233766234" xlink:href="#m4da8b75361" y="36.0"/>
      </g>
     </g>
     <g id="text_2">
      <text style="fill:#262626;font-family:Bitstream Vera Sans;font-size:10.0px;font-style:normal;font-weight:400;" transform="translate(128.993141234 343.725)rotate(-90.0)">50</text>
     </g>
    </g>
    <g id="xtick_3">
     <g id="line2d_7">
      <path clip-path="url(#p29efc5c285)" d="M 162.467532 324 
L 162.467532 36 
" style="fill:none;stroke:#ffffff;stroke-linecap:round;"/>
     </g>
     <g id="line2d_8">
      <g>
       <use style="fill:#262626;stroke:#262626;" x="162.467532468" xlink:href="#m4da8b75361" y="324.0"/>
      </g>
     </g>
     <g id="line2d_9">
      <g>
       <use style="fill:#262626;stroke:#262626;" x="162.467532468" xlink:href="#m4da8b75361" y="36.0"/>
      </g>
     </g>
     <g id="text_3">
      <text style="fill:#262626;font-family:Bitstream Vera Sans;font-size:10.0px;font-style:normal;font-weight:400;" transform="translate(165.226907468 350.0875)rotate(-90.0)">100</text>
     </g>
    </g>
    <g id="xtick_4">
     <g id="line2d_10">
      <path clip-path="url(#p29efc5c285)" d="M 198.701299 324 
L 198.701299 36 
" style="fill:none;stroke:#ffffff;stroke-linecap:round;"/>
     </g>
     <g id="line2d_11">
      <g>
       <use style="fill:#262626;stroke:#262626;" x="198.701298701" xlink:href="#m4da8b75361" y="324.0"/>
      </g>
     </g>
     <g id="line2d_12">
      <g>
       <use style="fill:#262626;stroke:#262626;" x="198.701298701" xlink:href="#m4da8b75361" y="36.0"/>
      </g>
     </g>
     <g id="text_4">
      <text style="fill:#262626;font-family:Bitstream Vera Sans;font-size:10.0px;font-style:normal;font-weight:400;" transform="translate(201.460673701 350.0875)rotate(-90.0)">150</text>
     </g>
    </g>
    <g id="xtick_5">
     <g id="line2d_13">
      <path clip-path="url(#p29efc5c285)" d="M 234.935065 324 
L 234.935065 36 
" style="fill:none;stroke:#ffffff;stroke-linecap:round;"/>
     </g>
     <g id="line2d_14">
      <g>
       <use style="fill:#262626;stroke:#262626;" x="234.935064935" xlink:href="#m4da8b75361" y="324.0"/>
      </g>
     </g>
     <g id="line2d_15">
      <g>
       <use style="fill:#262626;stroke:#262626;" x="234.935064935" xlink:href="#m4da8b75361" y="36.0"/>
      </g>
     </g>
     <g id="text_5">
      <text style="fill:#262626;font-family:Bitstream Vera Sans;font-size:10.0px;font-style:normal;font-weight:400;" transform="translate(237.694439935 350.0875)rotate(-90.0)">200</text>
     </g>
    </g>
    <g id="xtick_6">
     <g id="line2d_16">
      <path clip-path="url(#p29efc5c285)" d="M 271.168831 324 
L 271.168831 36 
" style="fill:none;stroke:#ffffff;stroke-linecap:round;"/>
     </g>
     <g id="line2d_17">
      <g>
       <use style="fill:#262626;stroke:#262626;" x="271.168831169" xlink:href="#m4da8b75361" y="324.0"/>
      </g>
     </g>
     <g id="line2d_18">
      <g>
       <use style="fill:#262626;stroke:#262626;" x="271.168831169" xlink:href="#m4da8b75361" y="36.0"/>
      </g>
     </g>
     <g id="text_6">
      <text style="fill:#262626;font-family:Bitstream Vera Sans;font-size:10.0px;font-style:normal;font-weight:400;" transform="translate(273.928206169 350.0875)rotate(-90.0)">250</text>
     </g>
    </g>
    <g id="xtick_7">
     <g id="line2d_19">
      <path clip-path="url(#p29efc5c285)" d="M 307.402597 324 
L 307.402597 36 
" style="fill:none;stroke:#ffffff;stroke-linecap:round;"/>
     </g>
     <g id="line2d_20">
      <g>
       <use style="fill:#262626;stroke:#262626;" x="307.402597403" xlink:href="#m4da8b75361" y="324.0"/>
      </g>
     </g>
     <g id="line2d_21">
      <g>
       <use style="fill:#262626;stroke:#262626;" x="307.402597403" xlink:href="#m4da8b75361" y="36.0"/>
      </g>
     </g>
     <g id="text_7">
      <text style="fill:#262626;font-family:Bitstream Vera Sans;font-size:10.0px;font-style:normal;font-weight:400;" transform="translate(310.161972403 350.0875)rotate(-90.0)">300</text>
     </g>
    </g>
    <g id="xtick_8">
     <g id="line2d_22">
      <path clip-path="url(#p29efc5c285)" d="M 343.636364 324 
L 343.636364 36 
" style="fill:none;stroke:#ffffff;stroke-linecap:round;"/>
     </g>
     <g id="line2d_23">
      <g>
       <use style="fill:#262626;stroke:#262626;" x="343.636363636" xlink:href="#m4da8b75361" y="324.0"/>
      </g>
     </g>
     <g id="line2d_24">
      <g>
       <use style="fill:#262626;stroke:#262626;" x="343.636363636" xlink:href="#m4da8b75361" y="36.0"/>
      </g>
     </g>
     <g id="text_8">
      <text style="fill:#262626;font-family:Bitstream Vera Sans;font-size:10.0px;font-style:normal;font-weight:400;" transform="translate(346.395738636 350.0875)rotate(-90.0)">350</text>
     </g>
    </g>
   </g>
   <g id="matplotlib.axis_2">
    <g id="ytick_1">
     <g id="line2d_25">
      <path clip-path="url(#p29efc5c285)" d="M 90 324 
L 343.636364 324 
" style="fill:none;stroke:#ffffff;stroke-linecap:round;"/>
     </g>
     <g id="line2d_26">
      <g>
       <use style="fill:#262626;stroke:#262626;" x="90.0" xlink:href="#m4da8b75361" y="324.0"/>
      </g>
     </g>
     <g id="line2d_27">
      <g>
       <use style="fill:#262626;stroke:#262626;" x="343.636363636" xlink:href="#m4da8b75361" y="324.0"/>
      </g>
     </g>
     <g id="text_9">
      <text style="fill:#262626;font-family:Bitstream Vera Sans;font-size:10.0px;font-style:normal;font-weight:400;text-anchor:end;" transform="rotate(-0.000000, 83.000000, 326.759375)" x="83.0" y="326.759375">−0.0008</text>
     </g>
    </g>
    <g id="ytick_2">
     <g id="line2d_28">
      <path clip-path="url(#p29efc5c285)" d="M 90 288 
L 343.636364 288 
" style="fill:none;stroke:#ffffff;stroke-linecap:round;"/>
     </g>
     <g id="line2d_29">
      <g>
       <use style="fill:#262626;stroke:#262626;" x="90.0" xlink:href="#m4da8b75361" y="288.0"/>
      </g>
     </g>
     <g id="line2d_30">
      <g>
       <use style="fill:#262626;stroke:#262626;" x="343.636363636" xlink:href="#m4da8b75361" y="288.0"/>
      </g>
     </g>
     <g id="text_10">
      <text style="fill:#262626;font-family:Bitstream Vera Sans;font-size:10.0px;font-style:normal;font-weight:400;text-anchor:end;" transform="rotate(-0.000000, 83.000000, 290.759375)" x="83.0" y="290.759375">−0.0006</text>
     </g>
    </g>
    <g id="ytick_3">
     <g id="line2d_31">
      <path clip-path="url(#p29efc5c285)" d="M 90 252 
L 343.636364 252 
" style="fill:none;stroke:#ffffff;stroke-linecap:round;"/>
     </g>
     <g id="line2d_32">
      <g>
       <use style="fill:#262626;stroke:#262626;" x="90.0" xlink:href="#m4da8b75361" y="252.0"/>
      </g>
     </g>
     <g id="line2d_33">
      <g>
       <use style="fill:#262626;stroke:#262626;" x="343.636363636" xlink:href="#m4da8b75361" y="252.0"/>
      </g>
     </g>
     <g id="text_11">
      <text style="fill:#262626;font-family:Bitstream Vera Sans;font-size:10.0px;font-style:normal;font-weight:400;text-anchor:end;" transform="rotate(-0.000000, 83.000000, 254.759375)" x="83.0" y="254.759375">−0.0004</text>
     </g>
    </g>
    <g id="ytick_4">
     <g id="line2d_34">
      <path clip-path="url(#p29efc5c285)" d="M 90 216 
L 343.636364 216 
" style="fill:none;stroke:#ffffff;stroke-linecap:round;"/>
     </g>
     <g id="line2d_35">
      <g>
       <use style="fill:#262626;stroke:#262626;" x="90.0" xlink:href="#m4da8b75361" y="216.0"/>
      </g>
     </g>
     <g id="line2d_36">
      <g>
       <use style="fill:#262626;stroke:#262626;" x="343.636363636" xlink:href="#m4da8b75361" y="216.0"/>
      </g>
     </g>
     <g id="text_12">
      <text style="fill:#262626;font-family:Bitstream Vera Sans;font-size:10.0px;font-style:normal;font-weight:400;text-anchor:end;" transform="rotate(-0.000000, 83.000000, 218.759375)" x="83.0" y="218.759375">−0.0002</text>
     </g>
    </g>
    <g id="ytick_5">
     <g id="line2d_37">
      <path clip-path="url(#p29efc5c285)" d="M 90 180 
L 343.636364 180 
" style="fill:none;stroke:#ffffff;stroke-linecap:round;"/>
     </g>
     <g id="line2d_38">
      <g>
       <use style="fill:#262626;stroke:#262626;" x="90.0" xlink:href="#m4da8b75361" y="180.0"/>
      </g>
     </g>
     <g id="line2d_39">
      <g>
       <use style="fill:#262626;stroke:#262626;" x="343.636363636" xlink:href="#m4da8b75361" y="180.0"/>
      </g>
     </g>
     <g id="text_13">
      <text style="fill:#262626;font-family:Bitstream Vera Sans;font-size:10.0px;font-style:normal;font-weight:400;text-anchor:end;" transform="rotate(-0.000000, 83.000000, 182.759375)" x="83.0" y="182.759375">0.0000</text>
     </g>
    </g>
    <g id="ytick_6">
     <g id="line2d_40">
      <path clip-path="url(#p29efc5c285)" d="M 90 144 
L 343.636364 144 
" style="fill:none;stroke:#ffffff;stroke-linecap:round;"/>
     </g>
     <g id="line2d_41">
      <g>
       <use style="fill:#262626;stroke:#262626;" x="90.0" xlink:href="#m4da8b75361" y="144.0"/>
      </g>
     </g>
     <g id="line2d_42">
      <g>
       <use style="fill:#262626;stroke:#262626;" x="343.636363636" xlink:href="#m4da8b75361" y="144.0"/>
      </g>
     </g>
     <g id="text_14">
      <text style="fill:#262626;font-family:Bitstream Vera Sans;font-size:10.0px;font-style:normal;font-weight:400;text-anchor:end;" transform="rotate(-0.000000, 83.000000, 146.759375)" x="83.0" y="146.759375">0.0002</text>
     </g>
    </g>
    <g id="ytick_7">
     <g id="line2d_43">
      <path clip-path="url(#p29efc5c285)" d="M 90 108 
L 343.636364 108 
" style="fill:none;stroke:#ffffff;stroke-linecap:round;"/>
     </g>
     <g id="line2d_44">
      <g>
       <use style="fill:#262626;stroke:#262626;" x="90.0" xlink:href="#m4da8b75361" y="108.0"/>
      </g>
     </g>
     <g id="line2d_45">
      <g>
       <use style="fill:#262626;stroke:#262626;" x="343.636363636" xlink:href="#m4da8b75361" y="108.0"/>
      </g>
     </g>
     <g id="text_15">
      <text style="fill:#262626;font-family:Bitstream Vera Sans;font-size:10.0px;font-style:normal;font-weight:400;text-anchor:end;" transform="rotate(-0.000000, 83.000000, 110.759375)" x="83.0" y="110.759375">0.0004</text>
     </g>
    </g>
    <g id="ytick_8">
     <g id="line2d_46">
      <path clip-path="url(#p29efc5c285)" d="M 90 72 
L 343.636364 72 
" style="fill:none;stroke:#ffffff;stroke-linecap:round;"/>
     </g>
     <g id="line2d_47">
      <g>
       <use style="fill:#262626;stroke:#262626;" x="90.0" xlink:href="#m4da8b75361" y="72.0"/>
      </g>
     </g>
     <g id="line2d_48">
      <g>
       <use style="fill:#262626;stroke:#262626;" x="343.636363636" xlink:href="#m4da8b75361" y="72.0"/>
      </g>
     </g>
     <g id="text_16">
      <text style="fill:#262626;font-family:Bitstream Vera Sans;font-size:10.0px;font-style:normal;font-weight:400;text-anchor:end;" transform="rotate(-0.000000, 83.000000, 74.759375)" x="83.0" y="74.759375">0.0006</text>
     </g>
    </g>
    <g id="ytick_9">
     <g id="line2d_49">
      <path clip-path="url(#p29efc5c285)" d="M 90 36 
L 343.636364 36 
" style="fill:none;stroke:#ffffff;stroke-linecap:round;"/>
     </g>
     <g id="line2d_50">
      <g>
       <use style="fill:#262626;stroke:#262626;" x="90.0" xlink:href="#m4da8b75361" y="36.0"/>
      </g>
     </g>
     <g id="line2d_51">
      <g>
       <use style="fill:#262626;stroke:#262626;" x="343.636363636" xlink:href="#m4da8b75361" y="36.0"/>
      </g>
     </g>
     <g id="text_17">
      <text style="fill:#262626;font-family:Bitstream Vera Sans;font-size:10.0px;font-style:normal;font-weight:400;text-anchor:end;" transform="rotate(-0.000000, 83.000000, 38.759375)" x="83.0" y="38.759375">0.0008</text>
     </g>
    </g>
   </g>
   <g id="line2d_52">
    <path clip-path="url(#p29efc5c285)" d="M 90 235.511311 
L 100.87013 235.511311 
L 101.594805 225.094645 
L 102.319481 225.094645 
L 103.044156 218.201263 
L 111.015584 218.201263 
L 111.74026 196.805193 
L 115.363636 196.805193 
L 116.088312 195.579358 
L 116.812987 195.579358 
L 117.537662 177.497467 
L 137.828571 177.497467 
L 138.553247 195.115809 
L 142.176623 195.115809 
L 142.901299 205.102494 
L 147.249351 205.102494 
L 147.974026 188.342718 
L 148.698701 188.342718 
L 149.423377 195.2361 
L 152.322078 195.2361 
L 153.046753 190.12112 
L 156.67013 190.12112 
L 157.394805 208.894586 
L 163.916883 208.894586 
L 164.641558 228.615775 
L 166.815584 228.615775 
L 167.54026 243.696203 
L 169.714286 243.696203 
L 170.438961 225.710592 
L 171.163636 225.710592 
L 171.888312 208.734345 
L 174.062338 208.734345 
L 174.787013 220.344252 
L 177.685714 220.344252 
L 178.41039 219.410383 
L 179.135065 212.517001 
L 179.85974 212.517001 
L 180.584416 219.243458 
L 182.758442 219.243458 
L 183.483117 211.019774 
L 189.280519 211.019774 
L 190.005195 192.246308 
L 190.72987 180.636401 
L 191.454545 192.246308 
L 193.628571 192.246308 
L 194.353247 200.073559 
L 196.527273 200.073559 
L 197.251948 184.993131 
L 197.976623 184.993131 
L 198.701299 166.73711 
L 199.425974 182.179199 
L 206.672727 182.179199 
L 207.397403 170.569293 
L 213.919481 170.569293 
L 214.644156 178.654062 
L 226.238961 178.654062 
L 226.963636 171.822274 
L 229.137662 171.822274 
L 229.862338 183.263953 
L 232.761039 183.263953 
L 233.485714 178.732508 
L 250.153247 178.732508 
L 250.877922 182.179199 
L 251.602597 190.095741 
L 261.023377 190.095741 
L 261.748052 178.654062 
L 263.922078 178.654062 
L 264.646753 182.100753 
L 281.314286 182.100753 
L 282.038961 178.654062 
L 285.662338 178.654062 
L 286.387013 189.824749 
L 292.909091 189.824749 
L 293.633766 183.468529 
L 296.532468 183.468529 
L 297.257143 176.652467 
L 299.431169 176.652467 
L 300.155844 172.540625 
L 302.32987 172.540625 
L 303.054545 170.612625 
L 303.779221 165.63585 
L 306.677922 165.63585 
L 307.402597 264.254036 
L 309.576623 264.254036 
L 310.301299 268.365878 
L 313.924675 268.365878 
L 314.649351 288.446199 
L 315.374026 288.446199 
L 316.823377 259.66439 
L 317.548052 251.940395 
L 318.272727 248.493704 
L 318.997403 232.929601 
L 319.722078 232.929601 
L 320.446753 199.01934 
L 321.171429 180.423019 
L 321.896104 181.668178 
L 322.620779 196.184306 
L 323.345455 207.794213 
L 324.07013 234.682533 
L 324.794805 249.502332 
L 325.519481 207.912498 
L 326.244156 216.740338 
L 326.968831 222.069325 
L 327.693506 222.069325 
L 328.418182 262.776094 
L 329.142857 271.483524 
L 329.867532 271.483524 
L 330.592208 266.979843 
L 331.316883 277.944756 
L 332.041558 261.592457 
L 332.766234 261.592457 
L 333.490909 309.619565 
L 334.215584 310.258592 
L 334.94026 285.118928 
L 335.664935 267.704064 
L 336.38961 265.567974 
L 337.838961 265.567974 
L 338.563636 223.756076 
L 342.911688 223.756076 
L 342.911688 223.756076 
" style="fill:none;stroke:#4c72b0;stroke-linecap:round;stroke-width:1.75;"/>
   </g>
   <g id="patch_3">
    <path d="M 90 36 
L 343.636364 36 
" style="fill:none;"/>
   </g>
   <g id="patch_4">
    <path d="M 343.636364 324 
L 343.636364 36 
" style="fill:none;"/>
   </g>
   <g id="patch_5">
    <path d="M 90 324 
L 343.636364 324 
" style="fill:none;"/>
   </g>
   <g id="patch_6">
    <path d="M 90 324 
L 90 36 
" style="fill:none;"/>
   </g>
   <g id="legend_1">
    <g id="line2d_53">
     <path d="M 94 -14.077563 
" style="fill:none;stroke:#4c72b0;stroke-linecap:round;stroke-width:1.75;"/>
    </g>
    <g id="line2d_54"/>
    <g id="text_18">
     <text style="fill:#262626;font-family:Bitstream Vera Sans;font-size:10.0px;font-style:normal;font-weight:400;text-anchor:start;" transform="rotate(-0.000000, 122.000000, -10.577563)" x="122.0" y="-10.5775625">ENAH_exons</text>
    </g>
   </g>
  </g>
  <g id="axes_2">
   <g id="patch_7">
    <path d="M 394.363636 324 
L 648 324 
L 648 36 
L 394.363636 36 
z
" style="fill:#eaeaf2;"/>
   </g>
   <g id="matplotlib.axis_3">
    <g id="xtick_9">
     <g id="line2d_55">
      <path clip-path="url(#p54a03e331b)" d="M 394.363636 324 
L 394.363636 36 
" style="fill:none;stroke:#ffffff;stroke-linecap:round;"/>
     </g>
     <g id="line2d_56">
      <g>
       <use style="fill:#262626;stroke:#262626;" x="394.363636364" xlink:href="#m4da8b75361" y="324.0"/>
      </g>
     </g>
     <g id="line2d_57">
      <g>
       <use style="fill:#262626;stroke:#262626;" x="394.363636364" xlink:href="#m4da8b75361" y="36.0"/>
      </g>
     </g>
     <g id="text_19">
      <text style="fill:#262626;font-family:Bitstream Vera Sans;font-size:10.0px;font-style:normal;font-weight:400;" transform="translate(397.123011364 353.6953125)rotate(-90.0)">-350</text>
     </g>
    </g>
    <g id="xtick_10">
     <g id="line2d_58">
      <path clip-path="url(#p54a03e331b)" d="M 430.597403 324 
L 430.597403 36 
" style="fill:none;stroke:#ffffff;stroke-linecap:round;"/>
     </g>
     <g id="line2d_59">
      <g>
       <use style="fill:#262626;stroke:#262626;" x="430.597402597" xlink:href="#m4da8b75361" y="324.0"/>
      </g>
     </g>
     <g id="line2d_60">
      <g>
       <use style="fill:#262626;stroke:#262626;" x="430.597402597" xlink:href="#m4da8b75361" y="36.0"/>
      </g>
     </g>
     <g id="text_20">
      <text style="fill:#262626;font-family:Bitstream Vera Sans;font-size:10.0px;font-style:normal;font-weight:400;" transform="translate(433.356777597 353.6953125)rotate(-90.0)">-300</text>
     </g>
    </g>
    <g id="xtick_11">
     <g id="line2d_61">
      <path clip-path="url(#p54a03e331b)" d="M 466.831169 324 
L 466.831169 36 
" style="fill:none;stroke:#ffffff;stroke-linecap:round;"/>
     </g>
     <g id="line2d_62">
      <g>
       <use style="fill:#262626;stroke:#262626;" x="466.831168831" xlink:href="#m4da8b75361" y="324.0"/>
      </g>
     </g>
     <g id="line2d_63">
      <g>
       <use style="fill:#262626;stroke:#262626;" x="466.831168831" xlink:href="#m4da8b75361" y="36.0"/>
      </g>
     </g>
     <g id="text_21">
      <text style="fill:#262626;font-family:Bitstream Vera Sans;font-size:10.0px;font-style:normal;font-weight:400;" transform="translate(469.590543831 353.6953125)rotate(-90.0)">-250</text>
     </g>
    </g>
    <g id="xtick_12">
     <g id="line2d_64">
      <path clip-path="url(#p54a03e331b)" d="M 503.064935 324 
L 503.064935 36 
" style="fill:none;stroke:#ffffff;stroke-linecap:round;"/>
     </g>
     <g id="line2d_65">
      <g>
       <use style="fill:#262626;stroke:#262626;" x="503.064935065" xlink:href="#m4da8b75361" y="324.0"/>
      </g>
     </g>
     <g id="line2d_66">
      <g>
       <use style="fill:#262626;stroke:#262626;" x="503.064935065" xlink:href="#m4da8b75361" y="36.0"/>
      </g>
     </g>
     <g id="text_22">
      <text style="fill:#262626;font-family:Bitstream Vera Sans;font-size:10.0px;font-style:normal;font-weight:400;" transform="translate(505.824310065 353.6953125)rotate(-90.0)">-200</text>
     </g>
    </g>
    <g id="xtick_13">
     <g id="line2d_67">
      <path clip-path="url(#p54a03e331b)" d="M 539.298701 324 
L 539.298701 36 
" style="fill:none;stroke:#ffffff;stroke-linecap:round;"/>
     </g>
     <g id="line2d_68">
      <g>
       <use style="fill:#262626;stroke:#262626;" x="539.298701299" xlink:href="#m4da8b75361" y="324.0"/>
      </g>
     </g>
     <g id="line2d_69">
      <g>
       <use style="fill:#262626;stroke:#262626;" x="539.298701299" xlink:href="#m4da8b75361" y="36.0"/>
      </g>
     </g>
     <g id="text_23">
      <text style="fill:#262626;font-family:Bitstream Vera Sans;font-size:10.0px;font-style:normal;font-weight:400;" transform="translate(542.058076299 353.6953125)rotate(-90.0)">-150</text>
     </g>
    </g>
    <g id="xtick_14">
     <g id="line2d_70">
      <path clip-path="url(#p54a03e331b)" d="M 575.532468 324 
L 575.532468 36 
" style="fill:none;stroke:#ffffff;stroke-linecap:round;"/>
     </g>
     <g id="line2d_71">
      <g>
       <use style="fill:#262626;stroke:#262626;" x="575.532467532" xlink:href="#m4da8b75361" y="324.0"/>
      </g>
     </g>
     <g id="line2d_72">
      <g>
       <use style="fill:#262626;stroke:#262626;" x="575.532467532" xlink:href="#m4da8b75361" y="36.0"/>
      </g>
     </g>
     <g id="text_24">
      <text style="fill:#262626;font-family:Bitstream Vera Sans;font-size:10.0px;font-style:normal;font-weight:400;" transform="translate(578.291842532 353.6953125)rotate(-90.0)">-100</text>
     </g>
    </g>
    <g id="xtick_15">
     <g id="line2d_73">
      <path clip-path="url(#p54a03e331b)" d="M 611.766234 324 
L 611.766234 36 
" style="fill:none;stroke:#ffffff;stroke-linecap:round;"/>
     </g>
     <g id="line2d_74">
      <g>
       <use style="fill:#262626;stroke:#262626;" x="611.766233766" xlink:href="#m4da8b75361" y="324.0"/>
      </g>
     </g>
     <g id="line2d_75">
      <g>
       <use style="fill:#262626;stroke:#262626;" x="611.766233766" xlink:href="#m4da8b75361" y="36.0"/>
      </g>
     </g>
     <g id="text_25">
      <text style="fill:#262626;font-family:Bitstream Vera Sans;font-size:10.0px;font-style:normal;font-weight:400;" transform="translate(614.525608766 347.3328125)rotate(-90.0)">-50</text>
     </g>
    </g>
    <g id="xtick_16">
     <g id="line2d_76">
      <path clip-path="url(#p54a03e331b)" d="M 648 324 
L 648 36 
" style="fill:none;stroke:#ffffff;stroke-linecap:round;"/>
     </g>
     <g id="line2d_77">
      <g>
       <use style="fill:#262626;stroke:#262626;" x="648.0" xlink:href="#m4da8b75361" y="324.0"/>
      </g>
     </g>
     <g id="line2d_78">
      <g>
       <use style="fill:#262626;stroke:#262626;" x="648.0" xlink:href="#m4da8b75361" y="36.0"/>
      </g>
     </g>
     <g id="text_26">
      <text style="fill:#262626;font-family:Bitstream Vera Sans;font-size:10.0px;font-style:normal;font-weight:400;" transform="translate(650.759375 337.3625)rotate(-90.0)">0</text>
     </g>
    </g>
   </g>
   <g id="matplotlib.axis_4">
    <g id="ytick_10">
     <g id="line2d_79">
      <path clip-path="url(#p54a03e331b)" d="M 394.363636 324 
L 648 324 
" style="fill:none;stroke:#ffffff;stroke-linecap:round;"/>
     </g>
     <g id="line2d_80">
      <g>
       <use style="fill:#262626;stroke:#262626;" x="394.363636364" xlink:href="#m4da8b75361" y="324.0"/>
      </g>
     </g>
     <g id="line2d_81">
      <g>
       <use style="fill:#262626;stroke:#262626;" x="648.0" xlink:href="#m4da8b75361" y="324.0"/>
      </g>
     </g>
    </g>
    <g id="ytick_11">
     <g id="line2d_82">
      <path clip-path="url(#p54a03e331b)" d="M 394.363636 288 
L 648 288 
" style="fill:none;stroke:#ffffff;stroke-linecap:round;"/>
     </g>
     <g id="line2d_83">
      <g>
       <use style="fill:#262626;stroke:#262626;" x="394.363636364" xlink:href="#m4da8b75361" y="288.0"/>
      </g>
     </g>
     <g id="line2d_84">
      <g>
       <use style="fill:#262626;stroke:#262626;" x="648.0" xlink:href="#m4da8b75361" y="288.0"/>
      </g>
     </g>
    </g>
    <g id="ytick_12">
     <g id="line2d_85">
      <path clip-path="url(#p54a03e331b)" d="M 394.363636 252 
L 648 252 
" style="fill:none;stroke:#ffffff;stroke-linecap:round;"/>
     </g>
     <g id="line2d_86">
      <g>
       <use style="fill:#262626;stroke:#262626;" x="394.363636364" xlink:href="#m4da8b75361" y="252.0"/>
      </g>
     </g>
     <g id="line2d_87">
      <g>
       <use style="fill:#262626;stroke:#262626;" x="648.0" xlink:href="#m4da8b75361" y="252.0"/>
      </g>
     </g>
    </g>
    <g id="ytick_13">
     <g id="line2d_88">
      <path clip-path="url(#p54a03e331b)" d="M 394.363636 216 
L 648 216 
" style="fill:none;stroke:#ffffff;stroke-linecap:round;"/>
     </g>
     <g id="line2d_89">
      <g>
       <use style="fill:#262626;stroke:#262626;" x="394.363636364" xlink:href="#m4da8b75361" y="216.0"/>
      </g>
     </g>
     <g id="line2d_90">
      <g>
       <use style="fill:#262626;stroke:#262626;" x="648.0" xlink:href="#m4da8b75361" y="216.0"/>
      </g>
     </g>
    </g>
    <g id="ytick_14">
     <g id="line2d_91">
      <path clip-path="url(#p54a03e331b)" d="M 394.363636 180 
L 648 180 
" style="fill:none;stroke:#ffffff;stroke-linecap:round;"/>
     </g>
     <g id="line2d_92">
      <g>
       <use style="fill:#262626;stroke:#262626;" x="394.363636364" xlink:href="#m4da8b75361" y="180.0"/>
      </g>
     </g>
     <g id="line2d_93">
      <g>
       <use style="fill:#262626;stroke:#262626;" x="648.0" xlink:href="#m4da8b75361" y="180.0"/>
      </g>
     </g>
    </g>
    <g id="ytick_15">
     <g id="line2d_94">
      <path clip-path="url(#p54a03e331b)" d="M 394.363636 144 
L 648 144 
" style="fill:none;stroke:#ffffff;stroke-linecap:round;"/>
     </g>
     <g id="line2d_95">
      <g>
       <use style="fill:#262626;stroke:#262626;" x="394.363636364" xlink:href="#m4da8b75361" y="144.0"/>
      </g>
     </g>
     <g id="line2d_96">
      <g>
       <use style="fill:#262626;stroke:#262626;" x="648.0" xlink:href="#m4da8b75361" y="144.0"/>
      </g>
     </g>
    </g>
    <g id="ytick_16">
     <g id="line2d_97">
      <path clip-path="url(#p54a03e331b)" d="M 394.363636 108 
L 648 108 
" style="fill:none;stroke:#ffffff;stroke-linecap:round;"/>
     </g>
     <g id="line2d_98">
      <g>
       <use style="fill:#262626;stroke:#262626;" x="394.363636364" xlink:href="#m4da8b75361" y="108.0"/>
      </g>
     </g>
     <g id="line2d_99">
      <g>
       <use style="fill:#262626;stroke:#262626;" x="648.0" xlink:href="#m4da8b75361" y="108.0"/>
      </g>
     </g>
    </g>
    <g id="ytick_17">
     <g id="line2d_100">
      <path clip-path="url(#p54a03e331b)" d="M 394.363636 72 
L 648 72 
" style="fill:none;stroke:#ffffff;stroke-linecap:round;"/>
     </g>
     <g id="line2d_101">
      <g>
       <use style="fill:#262626;stroke:#262626;" x="394.363636364" xlink:href="#m4da8b75361" y="72.0"/>
      </g>
     </g>
     <g id="line2d_102">
      <g>
       <use style="fill:#262626;stroke:#262626;" x="648.0" xlink:href="#m4da8b75361" y="72.0"/>
      </g>
     </g>
    </g>
    <g id="ytick_18">
     <g id="line2d_103">
      <path clip-path="url(#p54a03e331b)" d="M 394.363636 36 
L 648 36 
" style="fill:none;stroke:#ffffff;stroke-linecap:round;"/>
     </g>
     <g id="line2d_104">
      <g>
       <use style="fill:#262626;stroke:#262626;" x="394.363636364" xlink:href="#m4da8b75361" y="36.0"/>
      </g>
     </g>
     <g id="line2d_105">
      <g>
       <use style="fill:#262626;stroke:#262626;" x="648.0" xlink:href="#m4da8b75361" y="36.0"/>
      </g>
     </g>
    </g>
   </g>
   <g id="line2d_106">
    <path clip-path="url(#p54a03e331b)" d="M 394.363636 275.58435 
L 395.088312 275.58435 
L 396.537662 305.244494 
L 397.262338 305.244494 
L 397.987013 280.069669 
L 399.436364 280.069669 
L 400.161039 315.847968 
L 400.885714 315.847968 
L 401.61039 292.640129 
L 402.335065 301.481886 
L 403.784416 301.481886 
L 404.509091 266.072098 
L 405.958442 266.072098 
L 406.683117 259.580291 
L 407.407792 259.580291 
L 408.132468 232.926517 
L 408.857143 239.21297 
L 409.581818 257.235444 
L 411.755844 257.235444 
L 412.480519 278.329281 
L 413.205195 304.391066 
L 413.92987 304.391066 
L 414.654545 303.274767 
L 415.379221 283.194446 
L 416.103896 269.114344 
L 416.828571 276.418786 
L 417.553247 270.457381 
L 418.277922 285.22116 
L 419.002597 303.206771 
L 419.727273 303.206771 
L 420.451948 277.539923 
L 421.901299 277.539923 
L 422.625974 247.85778 
L 423.350649 247.85778 
L 424.075325 270.637865 
L 425.524675 270.637865 
L 426.249351 285.153993 
L 427.698701 285.153993 
L 428.423377 269.706 
L 429.872727 269.706 
L 430.597403 170.637999 
L 431.322078 170.637999 
L 432.046753 184.475637 
L 434.945455 184.475637 
L 435.67013 200.654128 
L 436.394805 213.259121 
L 437.844156 213.259121 
L 438.568831 208.144141 
L 442.192208 208.144141 
L 442.916883 195.032254 
L 448.714286 195.032254 
L 449.438961 179.121087 
L 452.337662 179.121087 
L 453.062338 175.757858 
L 456.685714 175.757858 
L 457.41039 172.39463 
L 458.135065 176.863273 
L 459.584416 176.863273 
L 460.309091 171.886498 
L 461.033766 171.886498 
L 461.758442 147.678954 
L 462.483117 139.338951 
L 463.207792 134.362175 
L 463.932468 117.292384 
L 464.657143 114.803996 
L 465.381818 109.827222 
L 466.831169 104.850446 
L 468.280519 104.850446 
L 469.005195 98.12399 
L 469.72987 95.635603 
L 470.454545 105.082005 
L 475.527273 105.082005 
L 476.251948 111.808462 
L 477.701299 111.808462 
L 478.425974 109.320073 
L 479.150649 117.044069 
L 479.875325 116.54438 
L 484.223377 116.54438 
L 484.948052 123.270837 
L 487.846753 123.270837 
L 488.571429 125.759227 
L 490.020779 125.759227 
L 490.745455 115.83053 
L 491.47013 115.83053 
L 492.194805 140.038073 
L 493.644156 140.038073 
L 494.368831 142.526463 
L 495.093506 147.503237 
L 495.818182 147.503237 
L 496.542857 144.839687 
L 497.992208 144.839687 
L 498.716883 157.227324 
L 499.441558 157.227324 
L 500.166234 147.62348 
L 500.890909 156.605858 
L 503.78961 156.605858 
L 504.514286 151.602717 
L 509.587013 151.602717 
L 510.311688 155.998227 
L 511.036364 148.274232 
L 515.384416 148.274232 
L 516.109091 143.878721 
L 521.906494 143.878721 
L 522.631169 137.851509 
L 524.080519 137.851509 
L 524.805195 132.874734 
L 525.52987 147.257543 
L 526.254545 153.284755 
L 527.703896 153.284755 
L 528.428571 171.717818 
L 537.849351 171.717818 
L 538.574026 168.6218 
L 541.472727 168.6218 
L 542.197403 175.348258 
L 542.922078 175.348258 
L 543.646753 173.859859 
L 546.545455 173.859859 
L 547.27013 176.348246 
L 552.342857 176.348246 
L 553.067532 189.320211 
L 553.792208 189.320211 
L 554.516883 183.201384 
L 555.966234 183.201384 
L 556.690909 188.178159 
L 557.415584 171.845331 
L 558.14026 173.33373 
L 561.763636 173.33373 
L 562.488312 178.310505 
L 563.937662 178.310505 
L 564.662338 185.083596 
L 565.387013 175.096912 
L 566.111688 175.096912 
L 566.836364 145.12706 
L 569.01039 145.12706 
L 569.735065 130.147033 
L 570.45974 130.147033 
L 571.184416 122.657022 
L 571.909091 122.657022 
L 573.358442 107.676991 
L 574.083117 120.657602 
L 574.807792 105.677579 
L 575.532468 105.677579 
L 576.257143 98.187568 
L 576.981818 97.424006 
L 578.431169 82.443983 
L 579.155844 95.013818 
L 582.779221 95.013818 
L 583.503896 90.037043 
L 584.953247 90.037043 
L 585.677922 38.344788 
L 593.649351 38.344788 
L 594.374026 53.324811 
L 595.098701 60.81483 
L 595.823377 64.676828 
L 596.548052 64.676828 
L 597.272727 79.65685 
L 597.997403 102.126892 
L 598.722078 102.126892 
L 600.171429 117.106919 
L 600.896104 139.576957 
L 602.345455 139.576957 
L 603.07013 146.47034 
L 603.794805 146.47034 
L 604.519481 160.307977 
L 605.244156 167.797991 
L 608.142857 167.797991 
L 608.867532 183.673009 
L 609.592208 193.659694 
L 613.94026 193.659694 
L 614.664935 198.636469 
L 616.114286 198.636469 
L 616.838961 184.069455 
L 621.187013 184.069455 
L 621.911688 174.082771 
L 625.535065 174.082771 
L 626.25974 166.575751 
L 633.506494 166.575751 
L 634.231169 159.682369 
L 634.955844 159.682369 
L 635.680519 147.268576 
L 646.550649 147.268576 
L 647.275325 161.83559 
L 647.275325 161.83559 
" style="fill:none;stroke:#4c72b0;stroke-linecap:round;stroke-width:1.75;"/>
   </g>
   <g id="patch_8">
    <path d="M 394.363636 36 
L 648 36 
" style="fill:none;"/>
   </g>
   <g id="patch_9">
    <path d="M 648 324 
L 648 36 
" style="fill:none;"/>
   </g>
   <g id="patch_10">
    <path d="M 394.363636 324 
L 648 324 
" style="fill:none;"/>
   </g>
   <g id="patch_11">
    <path d="M 394.363636 324 
L 394.363636 36 
" style="fill:none;"/>
   </g>
  </g>
  <g id="text_27">
   <text style="fill:#262626;font-family:Bitstream Vera Sans;font-size:12.0px;font-style:normal;font-weight:400;text-anchor:middle;" transform="rotate(-0.000000, 360.000000, 16.318125)" x="360.0" y="16.318125">204_01_RBFOX2.merged.r2.bed</text>
  </g>
 </g>
 <defs>
  <clipPath id="p29efc5c285">
   <rect height="288.0" width="253.636363636" x="90.0" y="36.0"/>
  </clipPath>
  <clipPath id="p54a03e331b">
   <rect height="288.0" width="253.636363636" x="394.363636364" y="36.0"/>
  </clipPath>
 </defs>
</svg>
