<?xml version="1.0" encoding="utf-8" standalone="no"?>
<!DOCTYPE svg PUBLIC "-//W3C//DTD SVG 1.1//EN"
  "http://www.w3.org/Graphics/SVG/1.1/DTD/svg11.dtd">
<!-- Created with matplotlib (http://matplotlib.org/) -->
<svg height="360pt" version="1.1" viewBox="0 0 720 360" width="720pt" xmlns="http://www.w3.org/2000/svg" xmlns:xlink="http://www.w3.org/1999/xlink">
 <defs>
  <style type="text/css">
*{stroke-linecap:butt;stroke-linejoin:round;}
  </style>
 </defs>
 <g id="figure_1">
  <g id="patch_1">
   <path d="M 0 360 
L 720 360 
L 720 0 
L 0 0 
z
" style="fill:#ffffff;"/>
  </g>
  <g id="axes_1">
   <g id="patch_2">
    <path d="M 90 320.4 
L 648 320.4 
L 648 265.77931 
L 90 265.77931 
z
" style="fill:#ffffff;"/>
   </g>
   <g id="legend_1">
    <g id="line2d_1">
     <path d="M 35.4 291.741718 
L 71.8 291.741718 
" style="fill:none;opacity:0.8;stroke:#db5f57;stroke-linecap:round;stroke-width:4;"/>
    </g>
    <g id="line2d_2"/>
    <g id="text_1">
     <text style="fill:#262626;font-family:DejaVu Sans;font-size:18.2px;font-style:normal;font-weight:400;text-anchor:start;" transform="rotate(-0, 86.36, 298.111718)" x="86.36" y="298.111718">Cell (10163 events)</text>
    </g>
   </g>
  </g>
  <g id="axes_2">
   <g id="patch_3">
    <path d="M 90 198.868966 
L 648 198.868966 
L 648 89.627586 
L 90 89.627586 
z
" style="fill:#ffffff;"/>
   </g>
   <g id="matplotlib.axis_1">
    <g id="xtick_1">
     <g id="line2d_3">
      <defs>
       <path d="M 0 0 
L 0 6 
" id="me533244171" style="stroke:#262626;stroke-width:1.3;"/>
      </defs>
      <g>
       <use style="fill:#262626;stroke:#262626;stroke-width:1.3;" x="90" xlink:href="#me533244171" y="198.868966"/>
      </g>
     </g>
     <g id="text_2">
      <text style="fill:#262626;font-family:DejaVu Sans;font-size:18.2px;font-style:normal;font-weight:400;text-anchor:middle;" transform="rotate(-0, 90, 227.798122)" x="90" y="227.798122">0</text>
     </g>
    </g>
    <g id="xtick_2">
     <g id="line2d_4">
      <g>
       <use style="fill:#262626;stroke:#262626;stroke-width:1.3;" x="159.75" xlink:href="#me533244171" y="198.868966"/>
      </g>
     </g>
     <g id="text_3">
      <text style="fill:#262626;font-family:DejaVu Sans;font-size:18.2px;font-style:normal;font-weight:400;text-anchor:middle;" transform="rotate(-0, 159.75, 227.798122)" x="159.75" y="227.798122">20</text>
     </g>
    </g>
    <g id="xtick_3">
     <g id="line2d_5">
      <g>
       <use style="fill:#262626;stroke:#262626;stroke-width:1.3;" x="229.5" xlink:href="#me533244171" y="198.868966"/>
      </g>
     </g>
     <g id="text_4">
      <text style="fill:#262626;font-family:DejaVu Sans;font-size:18.2px;font-style:normal;font-weight:400;text-anchor:middle;" transform="rotate(-0, 229.5, 227.798122)" x="229.5" y="227.798122">40</text>
     </g>
    </g>
    <g id="xtick_4">
     <g id="line2d_6">
      <g>
       <use style="fill:#262626;stroke:#262626;stroke-width:1.3;" x="299.25" xlink:href="#me533244171" y="198.868966"/>
      </g>
     </g>
     <g id="text_5">
      <text style="fill:#262626;font-family:DejaVu Sans;font-size:18.2px;font-style:normal;font-weight:400;text-anchor:middle;" transform="rotate(-0, 299.25, 227.798122)" x="299.25" y="227.798122">60</text>
     </g>
    </g>
    <g id="xtick_5">
     <g id="line2d_7">
      <g>
       <use style="fill:#262626;stroke:#262626;stroke-width:1.3;" x="369" xlink:href="#me533244171" y="198.868966"/>
      </g>
     </g>
     <g id="text_6">
      <text style="fill:#262626;font-family:DejaVu Sans;font-size:18.2px;font-style:normal;font-weight:400;text-anchor:middle;" transform="rotate(-0, 369, 227.798122)" x="369" y="227.798122">80</text>
     </g>
    </g>
    <g id="xtick_6">
     <g id="line2d_8">
      <g>
       <use style="fill:#262626;stroke:#262626;stroke-width:1.3;" x="438.75" xlink:href="#me533244171" y="198.868966"/>
      </g>
     </g>
     <g id="text_7">
      <text style="fill:#262626;font-family:DejaVu Sans;font-size:18.2px;font-style:normal;font-weight:400;text-anchor:middle;" transform="rotate(-0, 438.75, 227.798122)" x="438.75" y="227.798122">100</text>
     </g>
    </g>
    <g id="xtick_7">
     <g id="line2d_9">
      <g>
       <use style="fill:#262626;stroke:#262626;stroke-width:1.3;" x="508.5" xlink:href="#me533244171" y="198.868966"/>
      </g>
     </g>
     <g id="text_8">
      <text style="fill:#262626;font-family:DejaVu Sans;font-size:18.2px;font-style:normal;font-weight:400;text-anchor:middle;" transform="rotate(-0, 508.5, 227.798122)" x="508.5" y="227.798122">120</text>
     </g>
    </g>
    <g id="xtick_8">
     <g id="line2d_10">
      <g>
       <use style="fill:#262626;stroke:#262626;stroke-width:1.3;" x="578.25" xlink:href="#me533244171" y="198.868966"/>
      </g>
     </g>
     <g id="text_9">
      <text style="fill:#262626;font-family:DejaVu Sans;font-size:18.2px;font-style:normal;font-weight:400;text-anchor:middle;" transform="rotate(-0, 578.25, 227.798122)" x="578.25" y="227.798122">140</text>
     </g>
    </g>
    <g id="xtick_9">
     <g id="line2d_11">
      <g>
       <use style="fill:#262626;stroke:#262626;stroke-width:1.3;" x="648" xlink:href="#me533244171" y="198.868966"/>
      </g>
     </g>
     <g id="text_10">
      <text style="fill:#262626;font-family:DejaVu Sans;font-size:18.2px;font-style:normal;font-weight:400;text-anchor:middle;" transform="rotate(-0, 648, 227.798122)" x="648" y="227.798122">160</text>
     </g>
    </g>
   </g>
   <g id="matplotlib.axis_2">
    <g id="ytick_1">
     <g id="line2d_12">
      <defs>
       <path d="M 0 0 
L -6 0 
" id="m52918bd73a" style="stroke:#262626;stroke-width:1.3;"/>
      </defs>
      <g>
       <use style="fill:#262626;stroke:#262626;stroke-width:1.3;" x="90" xlink:href="#m52918bd73a" y="158.501717"/>
      </g>
     </g>
     <g id="text_11">
      <text style="fill:#262626;font-family:DejaVu Sans;font-size:18.2px;font-style:normal;font-weight:400;text-anchor:end;" transform="rotate(-0, 74.9, 165.416295)" x="74.9" y="165.416295">0.002</text>
     </g>
    </g>
    <g id="ytick_2">
     <g id="line2d_13">
      <g>
       <use style="fill:#262626;stroke:#262626;stroke-width:1.3;" x="90" xlink:href="#m52918bd73a" y="117.580125"/>
      </g>
     </g>
     <g id="text_12">
      <text style="fill:#262626;font-family:DejaVu Sans;font-size:18.2px;font-style:normal;font-weight:400;text-anchor:end;" transform="rotate(-0, 74.9, 124.494703)" x="74.9" y="124.494703">0.004</text>
     </g>
    </g>
   </g>
   <g id="PolyCollection_1">
    <defs>
     <path d="M 90 -179.544809 
L 90 -194.069415 
L 93.4875 -206.587986 
L 96.975 -224.909999 
L 100.4625 -236.570211 
L 103.95 -250.271103 
L 107.4375 -247.033954 
L 110.925 -248.034801 
L 114.4125 -259.152585 
L 117.9 -258.189386 
L 121.3875 -270.372414 
L 124.875 -251.7013 
L 128.3625 -257.498188 
L 131.85 -266.737914 
L 135.3375 -265.591688 
L 138.825 -242.645407 
L 142.3125 -230.347724 
L 145.8 -219.290884 
L 149.2875 -202.276944 
L 152.775 -197.429818 
L 156.2625 -189.990918 
L 159.75 -183.042162 
L 163.2375 -182.469504 
L 166.725 -181.37155 
L 170.2125 -180.777695 
L 173.7 -178.840994 
L 177.1875 -180.416337 
L 180.675 -184.095576 
L 184.1625 -183.736202 
L 187.65 -181.346322 
L 191.1375 -178.622039 
L 194.625 -183.883066 
L 198.1125 -182.563278 
L 201.6 -182.036305 
L 205.0875 -182.374926 
L 208.575 -183.320684 
L 212.0625 -185.095244 
L 215.55 -193.266146 
L 219.0375 -193.417137 
L 222.525 -194.924762 
L 226.0125 -196.934007 
L 229.5 -193.604379 
L 232.9875 -188.816706 
L 236.475 -189.627773 
L 239.9625 -189.230729 
L 243.45 -190.727598 
L 246.9375 -191.01799 
L 250.425 -193.794995 
L 253.9125 -196.373755 
L 257.4 -194.752109 
L 260.8875 -193.158814 
L 264.375 -192.897836 
L 267.8625 -190.032675 
L 271.35 -192.577005 
L 274.8375 -191.853508 
L 278.325 -192.307884 
L 281.8125 -189.67512 
L 285.3 -191.895045 
L 288.7875 -196.118973 
L 292.275 -196.045603 
L 295.7625 -195.071806 
L 299.25 -195.681321 
L 302.7375 -192.527741 
L 306.225 -188.429874 
L 309.7125 -184.956747 
L 313.2 -185.626465 
L 316.6875 -189.203142 
L 320.175 -187.169806 
L 323.6625 -185.698073 
L 327.15 -185.235974 
L 330.6375 -195.587177 
L 334.125 -193.944625 
L 337.6125 -192.472997 
L 341.1 -191.675393 
L 344.5875 -189.091434 
L 348.075 -191.218364 
L 351.5625 -191.217436 
L 355.05 -190.981369 
L 358.5375 -187.610221 
L 362.025 -190.421667 
L 365.5125 -195.735707 
L 369 -191.321823 
L 372.4875 -193.413687 
L 375.975 -194.003396 
L 379.4625 -192.845126 
L 382.95 -194.576042 
L 386.4375 -184.781149 
L 389.925 -176.243251 
L 393.4125 -177.586284 
L 396.9 -179.960819 
L 400.3875 -180.032281 
L 403.875 -181.15171 
L 407.3625 -182.175571 
L 410.85 -186.920295 
L 414.3375 -191.711117 
L 417.825 -189.048615 
L 421.3125 -185.841279 
L 424.8 -187.328145 
L 428.2875 -187.150385 
L 431.775 -187.157566 
L 435.2625 -182.453871 
L 438.75 -179.147848 
L 442.2375 -176.613904 
L 445.725 -172.739321 
L 449.2125 -172.655479 
L 452.7 -176.125472 
L 456.1875 -179.994295 
L 459.675 -172.655479 
L 463.1625 -170.84046 
L 466.65 -170.103041 
L 470.1375 -170.656789 
L 473.625 -171.206519 
L 477.1125 -167.450122 
L 480.6 -167.450122 
L 484.0875 -166.062139 
L 487.575 -167.162283 
L 491.0625 -168.360396 
L 494.55 -172.108766 
L 498.0375 -200.495209 
L 501.525 -208.781279 
L 505.0125 -204.859188 
L 508.5 -212.810116 
L 511.9875 -209.971429 
L 515.475 -203.469758 
L 518.9625 -207.582011 
L 522.45 -208.024195 
L 525.9375 -202.537762 
L 529.425 -187.318804 
L 532.9125 -193.310094 
L 536.4 -187.469766 
L 539.8875 -191.622876 
L 543.375 -198.039377 
L 546.8625 -205.929956 
L 550.35 -206.311492 
L 553.8375 -203.239785 
L 557.325 -208.590921 
L 560.8125 -210.808598 
L 564.3 -213.53403 
L 567.7875 -208.518717 
L 571.275 -206.577436 
L 574.7625 -209.401317 
L 578.25 -214.458367 
L 581.7375 -214.911614 
L 585.225 -218.335106 
L 588.7125 -211.225756 
L 592.2 -209.704367 
L 595.6875 -207.345224 
L 599.175 -203.662671 
L 602.6625 -204.280506 
L 606.15 -199.139228 
L 609.6375 -194.280735 
L 613.125 -200.380755 
L 616.6125 -195.027319 
L 620.1 -202.553348 
L 623.5875 -207.773371 
L 627.075 -213.708391 
L 630.5625 -209.910419 
L 634.05 -199.160565 
L 637.5375 -197.891679 
L 641.025 -198.852318 
L 644.5125 -184.507851 
L 648 -171.886154 
L 648 -164.147128 
L 648 -164.147128 
L 644.5125 -172.498074 
L 641.025 -183.204213 
L 637.5375 -182.463384 
L 634.05 -183.442509 
L 630.5625 -191.906186 
L 627.075 -194.95697 
L 623.5875 -190.202204 
L 620.1 -186.082959 
L 616.6125 -180.271638 
L 613.125 -184.388484 
L 609.6375 -179.704874 
L 606.15 -183.426005 
L 602.6625 -187.438732 
L 599.175 -186.952896 
L 595.6875 -189.861986 
L 592.2 -191.741478 
L 588.7125 -192.959609 
L 585.225 -198.708589 
L 581.7375 -195.929073 
L 578.25 -195.562585 
L 574.7625 -191.49939 
L 571.275 -189.252888 
L 567.7875 -190.79542 
L 564.3 -194.816317 
L 560.8125 -192.625146 
L 557.325 -190.852949 
L 553.8375 -186.620901 
L 550.35 -189.042217 
L 546.8625 -188.740259 
L 543.375 -182.577105 
L 539.8875 -177.703736 
L 536.4 -174.635148 
L 532.9125 -178.970992 
L 529.425 -174.52511 
L 525.9375 -186.070759 
L 522.45 -190.4017 
L 518.9625 -190.050094 
L 515.475 -186.801391 
L 511.9875 -191.954971 
L 508.5 -194.232946 
L 505.0125 -187.894619 
L 501.525 -191.004672 
L 498.0375 -184.477431 
L 494.55 -164.27831 
L 491.0625 -162.204993 
L 487.575 -161.620308 
L 484.0875 -161.131034 
L 480.6 -161.756314 
L 477.1125 -161.756314 
L 473.625 -163.752098 
L 470.1375 -163.439001 
L 466.65 -163.129922 
L 463.1625 -163.54294 
L 459.675 -164.604011 
L 456.1875 -169.344776 
L 452.7 -166.771155 
L 449.2125 -164.604011 
L 445.725 -164.654387 
L 442.2375 -167.088028 
L 438.75 -168.770096 
L 435.2625 -171.045943 
L 431.775 -174.407709 
L 428.2875 -174.402483 
L 424.8 -174.531916 
L 421.3125 -173.454294 
L 417.825 -175.792584 
L 414.3375 -177.769738 
L 410.85 -174.235184 
L 407.3625 -170.851286 
L 403.875 -170.139783 
L 400.3875 -169.370703 
L 396.9 -169.321937 
L 393.4125 -167.72626 
L 389.925 -166.847328 
L 386.4375 -172.693235 
L 382.95 -179.928821 
L 379.4625 -178.620668 
L 375.975 -179.494835 
L 372.4875 -179.049152 
L 369 -177.478793 
L 365.5125 -180.81118 
L 362.025 -176.80843 
L 358.5375 -174.737628 
L 355.05 -177.224855 
L 351.5625 -177.400883 
L 348.075 -177.401575 
L 344.5875 -175.824136 
L 341.1 -177.743013 
L 337.6125 -178.340883 
L 334.125 -179.450362 
L 330.6375 -180.697912 
L 327.15 -173.018977 
L 323.6625 -173.351122 
L 320.175 -174.416616 
L 316.6875 -175.906492 
L 313.2 -173.299574 
L 309.7125 -172.818856 
L 306.225 -175.337585 
L 302.7375 -178.382009 
L 299.25 -180.769697 
L 295.7625 -180.305471 
L 292.275 -181.047741 
L 288.7875 -181.103796 
L 285.3 -177.90741 
L 281.8125 -176.255071 
L 278.325 -178.216912 
L 274.8375 -177.876307 
L 271.35 -178.419028 
L 267.8625 -176.519798 
L 264.375 -178.660341 
L 260.8875 -178.856923 
L 257.4 -180.062487 
L 253.9125 -181.298584 
L 250.425 -179.337188 
L 246.9375 -177.252147 
L 243.45 -177.035883 
L 239.9625 -175.926839 
L 236.475 -176.220057 
L 232.9875 -175.621839 
L 229.5 -179.193132 
L 226.0125 -181.727653 
L 222.525 -180.193667 
L 219.0375 -179.051756 
L 215.55 -178.937845 
L 212.0625 -172.918061 
L 208.575 -171.655524 
L 205.0875 -170.990671 
L 201.6 -170.754074 
L 198.1125 -171.122611 
L 194.625 -172.053582 
L 191.1375 -168.416159 
L 187.65 -170.274447 
L 184.1625 -171.949441 
L 180.675 -172.204505 
L 177.1875 -169.633476 
L 173.7 -168.563252 
L 170.2125 -169.881763 
L 166.725 -170.291924 
L 163.2375 -171.056893 
L 159.75 -171.459123 
L 156.2625 -176.488853 
L 152.775 -182.108203 
L 149.2875 -185.866689 
L 145.8 -199.488007 
L 142.3125 -208.600562 
L 138.825 -218.909548 
L 135.3375 -238.511116 
L 131.85 -239.500459 
L 128.3625 -231.55088 
L 124.875 -226.595294 
L 121.3875 -242.643082 
L 117.9 -232.143475 
L 114.4125 -232.969855 
L 110.925 -223.47489 
L 107.4375 -222.625102 
L 103.95 -225.376774 
L 100.4625 -213.796577 
L 96.975 -204.098097 
L 93.4875 -189.261248 
L 90 -179.544809 
z
" id="m1c6502de28" style="stroke:#db5f57;stroke-opacity:0.2;stroke-width:0.39;"/>
    </defs>
    <g clip-path="url(#paa8e1af56f)">
     <use style="fill:#db5f57;fill-opacity:0.2;stroke:#db5f57;stroke-opacity:0.2;stroke-width:0.39;" x="0" xlink:href="#m1c6502de28" y="360"/>
    </g>
   </g>
   <g id="line2d_14">
    <path clip-path="url(#paa8e1af56f)" d="M 90 173.192888 
L 93.4875 162.075383 
L 96.975 145.495952 
L 100.4625 134.816606 
L 103.95 122.176062 
L 107.4375 125.170472 
L 110.925 124.245155 
L 114.4125 113.93878 
L 117.9 114.833569 
L 121.3875 103.492252 
L 124.875 120.851703 
L 128.3625 115.475466 
L 131.85 106.880813 
L 135.3375 107.948598 
L 138.825 129.222523 
L 142.3125 140.525857 
L 145.8 150.610555 
L 149.2875 165.928184 
L 152.775 170.230989 
L 156.2625 176.760114 
L 159.75 182.749358 
L 163.2375 183.236802 
L 166.725 184.168263 
L 170.2125 184.670271 
L 173.7 186.297877 
L 177.1875 184.975093 
L 180.675 181.849959 
L 184.1625 182.157178 
L 187.65 184.189616 
L 191.1375 186.480901 
L 194.625 182.031676 
L 198.1125 183.157055 
L 201.6 183.60481 
L 205.0875 183.317201 
L 208.575 182.511896 
L 212.0625 180.993348 
L 215.55 173.898005 
L 219.0375 173.765553 
L 222.525 172.440786 
L 226.0125 170.66917 
L 229.5 173.601245 
L 232.9875 177.780727 
L 236.475 177.076085 
L 239.9625 177.421216 
L 243.45 176.11826 
L 246.9375 175.864931 
L 250.425 173.433908 
L 253.9125 171.16383 
L 260.8875 173.992131 
L 264.375 174.220911 
L 267.8625 176.723764 
L 271.35 174.501984 
L 274.8375 175.135092 
L 278.325 174.737602 
L 281.8125 177.034905 
L 285.3 175.098773 
L 288.7875 171.388616 
L 292.275 171.453328 
L 295.7625 172.311362 
L 299.25 171.774491 
L 302.7375 174.545125 
L 306.225 178.116271 
L 309.7125 181.112199 
L 313.2 180.536981 
L 316.6875 177.445183 
L 320.175 179.206789 
L 323.6625 180.475403 
L 327.15 180.872524 
L 330.6375 171.857455 
L 334.125 173.302507 
L 337.6125 174.59306 
L 341.1 175.290797 
L 344.5875 177.542215 
L 348.075 175.69003 
L 351.5625 175.690841 
L 355.05 175.896888 
L 358.5375 178.826075 
L 362.025 176.384952 
L 365.5125 171.726556 
L 369 175.599692 
L 372.4875 173.768581 
L 375.975 173.250884 
L 379.4625 174.267103 
L 382.95 172.747569 
L 386.4375 181.262808 
L 389.925 188.45471 
L 393.4125 187.343728 
L 396.9 185.358622 
L 400.3875 185.298508 
L 407.3625 183.486571 
L 414.3375 175.259572 
L 417.825 177.579401 
L 421.3125 180.352214 
L 424.8 179.069969 
L 428.2875 179.223566 
L 431.775 179.217363 
L 435.2625 183.250093 
L 438.75 186.041028 
L 442.2375 188.149034 
L 445.725 191.303146 
L 449.2125 191.370255 
L 452.7 188.551686 
L 456.1875 185.330465 
L 459.675 191.370255 
L 463.1625 192.8083 
L 466.65 193.383518 
L 473.625 192.520691 
L 477.1125 195.396782 
L 480.6 195.396782 
L 484.0875 196.403413 
L 491.0625 194.717305 
L 494.55 191.806462 
L 498.0375 167.51368 
L 501.525 160.107025 
L 505.0125 163.623096 
L 508.5 156.478469 
L 511.9875 159.0368 
L 515.475 164.864426 
L 518.9625 161.183947 
L 522.45 160.787053 
L 525.9375 165.695739 
L 529.425 179.078043 
L 532.9125 173.859457 
L 536.4 178.947543 
L 539.8875 175.336694 
L 543.375 169.691759 
L 546.8625 162.664892 
L 550.35 162.323145 
L 553.8375 165.069657 
L 557.325 160.278065 
L 560.8125 158.283128 
L 564.3 155.824826 
L 567.7875 160.342931 
L 571.275 162.084838 
L 574.7625 159.549646 
L 578.25 154.989524 
L 581.7375 154.579656 
L 585.225 151.478152 
L 588.7125 157.907318 
L 592.2 159.277078 
L 595.6875 161.396395 
L 599.175 164.692216 
L 602.6625 164.140381 
L 606.15 168.717384 
L 609.6375 173.007195 
L 613.125 167.61538 
L 616.6125 172.350522 
L 620.1 165.681847 
L 623.5875 161.012213 
L 627.075 155.66732 
L 630.5625 159.091697 
L 634.05 168.698463 
L 637.5375 169.822469 
L 641.025 168.971735 
L 644.5125 181.497037 
L 648 191.983359 
L 648 191.983359 
" style="fill:none;opacity:0.8;stroke:#db5f57;stroke-linecap:round;stroke-width:0.8;"/>
   </g>
   <g id="patch_4">
    <path d="M 90 198.868966 
L 90 89.627586 
" style="fill:none;stroke:#262626;stroke-linecap:square;stroke-linejoin:miter;stroke-width:1.25;"/>
   </g>
   <g id="patch_5">
    <path d="M 648 198.868966 
L 648 89.627586 
" style="fill:none;stroke:#262626;stroke-linecap:square;stroke-linejoin:miter;stroke-width:1.25;"/>
   </g>
   <g id="patch_6">
    <path d="M 90 198.868966 
L 648 198.868966 
" style="fill:none;stroke:#262626;stroke-linecap:square;stroke-linejoin:miter;stroke-width:1.25;"/>
   </g>
   <g id="patch_7">
    <path d="M 90 89.627586 
L 648 89.627586 
" style="fill:none;stroke:#262626;stroke-linecap:square;stroke-linejoin:miter;stroke-width:1.25;"/>
   </g>
  </g>
  <g id="axes_3">
   <g id="patch_8">
    <path d="M 90 80.068966 
L 648 80.068966 
L 648 66.413793 
L 90 66.413793 
z
" style="fill:#ffffff;"/>
   </g>
  </g>
  <g id="axes_4">
   <g id="patch_9">
    <path d="M 90 56.855172 
L 648 56.855172 
L 648 43.2 
L 90 43.2 
z
" style="fill:#ffffff;"/>
   </g>
  </g>
 </g>
 <defs>
  <clipPath id="paa8e1af56f">
   <rect height="109.241379" width="558" x="90" y="89.627586"/>
  </clipPath>
 </defs>
</svg>
