<?xml version="1.0" encoding="utf-8" standalone="no"?>
<!DOCTYPE svg PUBLIC "-//W3C//DTD SVG 1.1//EN"
  "http://www.w3.org/Graphics/SVG/1.1/DTD/svg11.dtd">
<!-- Created with matplotlib (http://matplotlib.org/) -->
<svg height="360pt" version="1.1" viewBox="0 0 720 360" width="720pt" xmlns="http://www.w3.org/2000/svg" xmlns:xlink="http://www.w3.org/1999/xlink">
 <defs>
  <style type="text/css">
*{stroke-linecap:butt;stroke-linejoin:round;}
  </style>
 </defs>
 <g id="figure_1">
  <g id="patch_1">
   <path d="M 0 360 
L 720 360 
L 720 0 
L 0 0 
z
" style="fill:#ffffff;"/>
  </g>
  <g id="axes_1">
   <g id="patch_2">
    <path d="M 90 320.4 
L 648 320.4 
L 648 265.77931 
L 90 265.77931 
z
" style="fill:#ffffff;"/>
   </g>
   <g id="legend_1">
    <g id="line2d_1">
     <path d="M 35.4 291.741718 
L 71.8 291.741718 
" style="fill:none;opacity:0.8;stroke:#db5f57;stroke-linecap:round;stroke-width:4;"/>
    </g>
    <g id="line2d_2"/>
    <g id="text_1">
     <text style="fill:#262626;font-family:DejaVu Sans;font-size:18.2px;font-style:normal;font-weight:400;text-anchor:start;" transform="rotate(-0, 86.36, 298.111718)" x="86.36" y="298.111718">Cell (10163 events)</text>
    </g>
   </g>
  </g>
  <g id="axes_2">
   <g id="patch_3">
    <path d="M 90 198.868966 
L 648 198.868966 
L 648 89.627586 
L 90 89.627586 
z
" style="fill:#ffffff;"/>
   </g>
   <g id="matplotlib.axis_1">
    <g id="xtick_1">
     <g id="line2d_3">
      <defs>
       <path d="M 0 0 
L 0 6 
" id="mf340b31d44" style="stroke:#262626;stroke-width:1.3;"/>
      </defs>
      <g>
       <use style="fill:#262626;stroke:#262626;stroke-width:1.3;" x="90" xlink:href="#mf340b31d44" y="198.868966"/>
      </g>
     </g>
     <g id="text_2">
      <text style="fill:#262626;font-family:DejaVu Sans;font-size:18.2px;font-style:normal;font-weight:400;text-anchor:middle;" transform="rotate(-0, 90, 227.798122)" x="90" y="227.798122">0</text>
     </g>
    </g>
    <g id="xtick_2">
     <g id="line2d_4">
      <g>
       <use style="fill:#262626;stroke:#262626;stroke-width:1.3;" x="159.75" xlink:href="#mf340b31d44" y="198.868966"/>
      </g>
     </g>
     <g id="text_3">
      <text style="fill:#262626;font-family:DejaVu Sans;font-size:18.2px;font-style:normal;font-weight:400;text-anchor:middle;" transform="rotate(-0, 159.75, 227.798122)" x="159.75" y="227.798122">20</text>
     </g>
    </g>
    <g id="xtick_3">
     <g id="line2d_5">
      <g>
       <use style="fill:#262626;stroke:#262626;stroke-width:1.3;" x="229.5" xlink:href="#mf340b31d44" y="198.868966"/>
      </g>
     </g>
     <g id="text_4">
      <text style="fill:#262626;font-family:DejaVu Sans;font-size:18.2px;font-style:normal;font-weight:400;text-anchor:middle;" transform="rotate(-0, 229.5, 227.798122)" x="229.5" y="227.798122">40</text>
     </g>
    </g>
    <g id="xtick_4">
     <g id="line2d_6">
      <g>
       <use style="fill:#262626;stroke:#262626;stroke-width:1.3;" x="299.25" xlink:href="#mf340b31d44" y="198.868966"/>
      </g>
     </g>
     <g id="text_5">
      <text style="fill:#262626;font-family:DejaVu Sans;font-size:18.2px;font-style:normal;font-weight:400;text-anchor:middle;" transform="rotate(-0, 299.25, 227.798122)" x="299.25" y="227.798122">60</text>
     </g>
    </g>
    <g id="xtick_5">
     <g id="line2d_7">
      <g>
       <use style="fill:#262626;stroke:#262626;stroke-width:1.3;" x="369" xlink:href="#mf340b31d44" y="198.868966"/>
      </g>
     </g>
     <g id="text_6">
      <text style="fill:#262626;font-family:DejaVu Sans;font-size:18.2px;font-style:normal;font-weight:400;text-anchor:middle;" transform="rotate(-0, 369, 227.798122)" x="369" y="227.798122">80</text>
     </g>
    </g>
    <g id="xtick_6">
     <g id="line2d_8">
      <g>
       <use style="fill:#262626;stroke:#262626;stroke-width:1.3;" x="438.75" xlink:href="#mf340b31d44" y="198.868966"/>
      </g>
     </g>
     <g id="text_7">
      <text style="fill:#262626;font-family:DejaVu Sans;font-size:18.2px;font-style:normal;font-weight:400;text-anchor:middle;" transform="rotate(-0, 438.75, 227.798122)" x="438.75" y="227.798122">100</text>
     </g>
    </g>
    <g id="xtick_7">
     <g id="line2d_9">
      <g>
       <use style="fill:#262626;stroke:#262626;stroke-width:1.3;" x="508.5" xlink:href="#mf340b31d44" y="198.868966"/>
      </g>
     </g>
     <g id="text_8">
      <text style="fill:#262626;font-family:DejaVu Sans;font-size:18.2px;font-style:normal;font-weight:400;text-anchor:middle;" transform="rotate(-0, 508.5, 227.798122)" x="508.5" y="227.798122">120</text>
     </g>
    </g>
    <g id="xtick_8">
     <g id="line2d_10">
      <g>
       <use style="fill:#262626;stroke:#262626;stroke-width:1.3;" x="578.25" xlink:href="#mf340b31d44" y="198.868966"/>
      </g>
     </g>
     <g id="text_9">
      <text style="fill:#262626;font-family:DejaVu Sans;font-size:18.2px;font-style:normal;font-weight:400;text-anchor:middle;" transform="rotate(-0, 578.25, 227.798122)" x="578.25" y="227.798122">140</text>
     </g>
    </g>
    <g id="xtick_9">
     <g id="line2d_11">
      <g>
       <use style="fill:#262626;stroke:#262626;stroke-width:1.3;" x="648" xlink:href="#mf340b31d44" y="198.868966"/>
      </g>
     </g>
     <g id="text_10">
      <text style="fill:#262626;font-family:DejaVu Sans;font-size:18.2px;font-style:normal;font-weight:400;text-anchor:middle;" transform="rotate(-0, 648, 227.798122)" x="648" y="227.798122">160</text>
     </g>
    </g>
   </g>
   <g id="matplotlib.axis_2">
    <g id="ytick_1">
     <g id="line2d_12">
      <defs>
       <path d="M 0 0 
L -6 0 
" id="m8b45103223" style="stroke:#262626;stroke-width:1.3;"/>
      </defs>
      <g>
       <use style="fill:#262626;stroke:#262626;stroke-width:1.3;" x="90" xlink:href="#m8b45103223" y="163.698898"/>
      </g>
     </g>
     <g id="text_11">
      <text style="fill:#262626;font-family:DejaVu Sans;font-size:18.2px;font-style:normal;font-weight:400;text-anchor:end;" transform="rotate(-0, 74.9, 170.613477)" x="74.9" y="170.613477">0.005</text>
     </g>
    </g>
    <g id="ytick_2">
     <g id="line2d_13">
      <g>
       <use style="fill:#262626;stroke:#262626;stroke-width:1.3;" x="90" xlink:href="#m8b45103223" y="127.581858"/>
      </g>
     </g>
     <g id="text_12">
      <text style="fill:#262626;font-family:DejaVu Sans;font-size:18.2px;font-style:normal;font-weight:400;text-anchor:end;" transform="rotate(-0, 74.9, 134.496436)" x="74.9" y="134.496436">0.010</text>
     </g>
    </g>
    <g id="ytick_3">
     <g id="line2d_14">
      <g>
       <use style="fill:#262626;stroke:#262626;stroke-width:1.3;" x="90" xlink:href="#m8b45103223" y="91.464818"/>
      </g>
     </g>
     <g id="text_13">
      <text style="fill:#262626;font-family:DejaVu Sans;font-size:18.2px;font-style:normal;font-weight:400;text-anchor:end;" transform="rotate(-0, 74.9, 98.379396)" x="74.9" y="98.379396">0.015</text>
     </g>
    </g>
   </g>
   <g id="PolyCollection_1">
    <defs>
     <path d="M 90 -170.659469 
L 90 -176.866989 
L 93.4875 -185.141455 
L 96.975 -192.242355 
L 100.4625 -194.437335 
L 103.95 -195.693468 
L 107.4375 -201.537752 
L 110.925 -203.809157 
L 114.4125 -205.831057 
L 117.9 -204.153704 
L 121.3875 -202.632728 
L 124.875 -199.275498 
L 128.3625 -194.372481 
L 131.85 -193.175558 
L 135.3375 -193.204243 
L 138.825 -189.879202 
L 142.3125 -183.883749 
L 145.8 -176.759673 
L 149.2875 -176.238273 
L 152.775 -176.87055 
L 156.2625 -175.386115 
L 159.75 -174.036921 
L 163.2375 -171.748749 
L 166.725 -168.919244 
L 170.2125 -169.463278 
L 173.7 -169.268832 
L 177.1875 -169.649101 
L 180.675 -169.538116 
L 184.1625 -168.862813 
L 187.65 -168.50471 
L 191.1375 -168.296807 
L 194.625 -168.296807 
L 198.1125 -166.962332 
L 201.6 -166.386224 
L 205.0875 -166.756992 
L 208.575 -168.427673 
L 212.0625 -168.252198 
L 215.55 -167.879634 
L 219.0375 -169.04329 
L 222.525 -169.229099 
L 226.0125 -168.939928 
L 229.5 -170.576295 
L 232.9875 -171.984909 
L 236.475 -171.673419 
L 239.9625 -171.637784 
L 243.45 -171.915541 
L 246.9375 -171.782506 
L 250.425 -170.644317 
L 253.9125 -168.684899 
L 257.4 -168.213521 
L 260.8875 -167.600437 
L 264.375 -167.999019 
L 267.8625 -167.42547 
L 271.35 -166.530415 
L 274.8375 -166.359972 
L 278.325 -166.066699 
L 281.8125 -165.326745 
L 285.3 -166.761678 
L 288.7875 -166.189069 
L 292.275 -167.011014 
L 295.7625 -166.344455 
L 299.25 -166.017681 
L 302.7375 -165.030766 
L 306.225 -165.574562 
L 309.7125 -165.185868 
L 313.2 -165.084567 
L 316.6875 -165.368252 
L 320.175 -165.326745 
L 323.6625 -165.326745 
L 327.15 -166.066699 
L 330.6375 -164.877304 
L 334.125 -163.629397 
L 337.6125 -164.590802 
L 341.1 -165.698016 
L 344.5875 -165.435319 
L 348.075 -166.189069 
L 351.5625 -166.189069 
L 355.05 -165.580117 
L 358.5375 -165.864909 
L 362.025 -166.473651 
L 365.5125 -167.740148 
L 369 -166.395519 
L 372.4875 -165.108844 
L 375.975 -164.493202 
L 379.4625 -164.907131 
L 382.95 -166.47031 
L 386.4375 -167.039184 
L 389.925 -168.296807 
L 393.4125 -167.600437 
L 396.9 -167.583985 
L 400.3875 -167.039184 
L 403.875 -167.693603 
L 407.3625 -168.514599 
L 410.85 -167.144727 
L 414.3375 -168.368338 
L 417.825 -168.930865 
L 421.3125 -169.268474 
L 424.8 -168.712183 
L 428.2875 -168.418331 
L 431.775 -167.575464 
L 435.2625 -167.207982 
L 438.75 -167.619956 
L 442.2375 -165.332542 
L 445.725 -166.528042 
L 449.2125 -165.928728 
L 452.7 -167.111572 
L 456.1875 -167.894566 
L 459.675 -171.17402 
L 463.1625 -170.273681 
L 466.65 -170.21984 
L 470.1375 -169.388392 
L 473.625 -168.741788 
L 477.1125 -170.40936 
L 480.6 -171.753572 
L 484.0875 -171.279867 
L 487.575 -172.036892 
L 491.0625 -173.550254 
L 494.55 -173.33835 
L 498.0375 -179.142743 
L 501.525 -200.374294 
L 505.0125 -208.144083 
L 508.5 -212.408795 
L 511.9875 -218.253128 
L 515.475 -224.866531 
L 518.9625 -234.833039 
L 522.45 -245.603017 
L 525.9375 -249.257467 
L 529.425 -252.445558 
L 532.9125 -255.785455 
L 536.4 -256.685914 
L 539.8875 -260.53185 
L 543.375 -265.114564 
L 546.8625 -270.372414 
L 550.35 -269.353639 
L 553.8375 -267.91849 
L 557.325 -257.246715 
L 560.8125 -265.013899 
L 564.3 -267.258587 
L 567.7875 -258.543855 
L 571.275 -259.824242 
L 574.7625 -268.38671 
L 578.25 -261.998503 
L 581.7375 -251.469083 
L 585.225 -249.392666 
L 588.7125 -251.562094 
L 592.2 -252.61707 
L 595.6875 -249.573454 
L 599.175 -250.660148 
L 602.6625 -256.675498 
L 606.15 -254.076023 
L 609.6375 -252.337942 
L 613.125 -262.511732 
L 616.6125 -249.490689 
L 620.1 -246.830556 
L 623.5875 -244.51333 
L 627.075 -240.198299 
L 630.5625 -236.433418 
L 634.05 -224.13692 
L 637.5375 -222.357984 
L 641.025 -218.901272 
L 644.5125 -199.125267 
L 648 -168.874644 
L 648 -164.56585 
L 648 -164.56585 
L 644.5125 -189.311766 
L 641.025 -206.714371 
L 637.5375 -209.800833 
L 634.05 -211.393323 
L 630.5625 -222.467819 
L 627.075 -225.879139 
L 623.5875 -229.799325 
L 620.1 -231.908809 
L 616.6125 -234.333964 
L 613.125 -246.253912 
L 609.6375 -236.933686 
L 606.15 -238.522605 
L 602.6625 -240.901639 
L 599.175 -235.401267 
L 595.6875 -234.409477 
L 592.2 -237.188762 
L 588.7125 -236.224891 
L 585.225 -234.244535 
L 581.7375 -236.139938 
L 578.25 -245.782657 
L 574.7625 -251.656002 
L 571.275 -243.787447 
L 567.7875 -242.613451 
L 564.3 -250.617627 
L 560.8125 -248.552992 
L 557.325 -241.42483 
L 553.8375 -251.224973 
L 550.35 -252.546395 
L 546.8625 -253.484911 
L 543.375 -248.64554 
L 539.8875 -244.436563 
L 536.4 -240.911178 
L 532.9125 -240.086723 
L 529.425 -237.032024 
L 525.9375 -234.121198 
L 522.45 -230.790958 
L 518.9625 -221.020445 
L 515.475 -212.047233 
L 511.9875 -206.136877 
L 508.5 -200.948667 
L 505.0125 -197.186665 
L 501.525 -190.394904 
L 498.0375 -172.484036 
L 494.55 -167.896036 
L 491.0625 -168.059304 
L 487.575 -166.902213 
L 484.0875 -166.331865 
L 480.6 -166.688048 
L 477.1125 -165.683978 
L 473.625 -164.470702 
L 470.1375 -164.936384 
L 466.65 -165.544151 
L 463.1625 -165.583828 
L 459.675 -166.252615 
L 456.1875 -163.871029 
L 452.7 -163.328971 
L 449.2125 -162.536931 
L 445.725 -162.933788 
L 442.2375 -162.152612 
L 438.75 -163.679494 
L 435.2625 -163.395019 
L 431.775 -163.648602 
L 428.2875 -164.240271 
L 424.8 -164.449539 
L 421.3125 -164.849536 
L 417.825 -164.606199 
L 414.3375 -164.204814 
L 410.85 -163.351661 
L 407.3625 -164.308668 
L 403.875 -163.730716 
L 400.3875 -163.279515 
L 396.9 -163.654515 
L 393.4125 -163.665936 
L 389.925 -164.154159 
L 386.4375 -163.279515 
L 382.95 -162.895141 
L 379.4625 -161.885742 
L 375.975 -161.632838 
L 372.4875 -162.011456 
L 369 -162.845202 
L 365.5125 -163.763144 
L 362.025 -162.897375 
L 358.5375 -162.495265 
L 355.05 -162.310834 
L 351.5625 -162.70812 
L 348.075 -162.70812 
L 344.5875 -162.218048 
L 341.1 -162.38688 
L 337.6125 -161.691822 
L 334.125 -161.131034 
L 330.6375 -161.867284 
L 327.15 -162.627416 
L 323.6625 -162.148932 
L 320.175 -162.148932 
L 316.6875 -162.175307 
L 313.2 -161.996246 
L 309.7125 -162.059859 
L 306.225 -162.307261 
L 302.7375 -161.962614 
L 299.25 -162.595206 
L 295.7625 -162.81119 
L 292.275 -163.260301 
L 288.7875 -162.70812 
L 285.3 -163.091038 
L 281.8125 -162.148932 
L 278.325 -162.627416 
L 274.8375 -162.821518 
L 271.35 -162.935378 
L 267.8625 -163.544755 
L 264.375 -163.944264 
L 260.8875 -163.665936 
L 257.4 -164.095294 
L 253.9125 -164.430047 
L 250.425 -165.857955 
L 246.9375 -166.709882 
L 243.45 -166.810381 
L 239.9625 -166.600763 
L 236.475 -166.627611 
L 232.9875 -166.862857 
L 229.5 -165.807518 
L 226.0125 -164.612709 
L 222.525 -164.821066 
L 219.0375 -164.687036 
L 215.55 -163.860577 
L 212.0625 -164.122615 
L 208.575 -164.246901 
L 205.0875 -163.087871 
L 201.6 -162.839006 
L 198.1125 -163.227139 
L 194.625 -164.154159 
L 191.1375 -164.154159 
L 187.65 -164.301634 
L 184.1625 -164.557365 
L 180.675 -165.045116 
L 177.1875 -165.125923 
L 173.7 -164.849795 
L 170.2125 -164.990727 
L 166.725 -164.597855 
L 163.2375 -166.684409 
L 159.75 -168.435697 
L 156.2625 -169.488857 
L 152.775 -170.662301 
L 149.2875 -170.160731 
L 145.8 -170.574165 
L 142.3125 -176.364838 
L 138.825 -181.388099 
L 135.3375 -184.216442 
L 131.85 -184.191932 
L 128.3625 -185.216195 
L 124.875 -189.441904 
L 121.3875 -192.359872 
L 117.9 -193.687642 
L 114.4125 -195.155809 
L 110.925 -193.386562 
L 107.4375 -191.406167 
L 103.95 -186.350124 
L 100.4625 -185.271781 
L 96.975 -183.395547 
L 93.4875 -177.409195 
L 90 -170.659469 
z
" id="m7d282d5953" style="stroke:#db5f57;stroke-opacity:0.2;stroke-width:0.39;"/>
    </defs>
    <g clip-path="url(#pad29c1f5b4)">
     <use style="fill:#db5f57;fill-opacity:0.2;stroke:#db5f57;stroke-opacity:0.2;stroke-width:0.39;" x="0" xlink:href="#m7d282d5953" y="360"/>
    </g>
   </g>
   <g id="line2d_15">
    <path clip-path="url(#pad29c1f5b4)" d="M 90 186.236771 
L 93.4875 178.724675 
L 96.975 172.181049 
L 100.4625 170.145442 
L 103.95 168.978204 
L 107.4375 163.52804 
L 110.925 161.40214 
L 114.4125 159.506567 
L 117.9 161.079327 
L 121.3875 162.5037 
L 124.875 165.641299 
L 128.3625 170.205662 
L 131.85 171.316255 
L 135.3375 171.289658 
L 138.825 174.36635 
L 142.3125 179.875707 
L 145.8 186.333081 
L 149.2875 186.800498 
L 152.775 186.233575 
L 156.2625 187.562514 
L 159.75 188.763691 
L 163.2375 190.783421 
L 166.725 193.24145 
L 170.2125 192.772998 
L 173.7 192.940687 
L 177.1875 192.612488 
L 180.675 192.708384 
L 184.1625 193.289911 
L 187.65 193.596828 
L 191.1375 193.774517 
L 194.625 193.774517 
L 198.1125 194.905264 
L 201.6 195.387385 
L 205.0875 195.077569 
L 208.575 193.662713 
L 212.0625 193.812593 
L 215.55 194.129895 
L 219.0375 193.134837 
L 222.525 192.974917 
L 226.0125 193.223681 
L 229.5 191.808093 
L 232.9875 190.576117 
L 236.475 190.849485 
L 239.9625 190.880727 
L 243.45 190.637039 
L 246.9375 190.753806 
L 250.425 191.748864 
L 253.9125 193.442527 
L 257.4 193.845593 
L 260.8875 194.366813 
L 264.375 194.028358 
L 267.8625 194.514887 
L 271.35 195.267104 
L 278.325 195.652942 
L 281.8125 196.262161 
L 285.3 195.073642 
L 288.7875 195.551406 
L 292.275 194.864342 
L 295.7625 195.422177 
L 299.25 195.693557 
L 302.7375 196.50331 
L 306.225 196.059088 
L 309.7125 196.377136 
L 313.2 196.459593 
L 316.6875 196.228221 
L 323.6625 196.262161 
L 327.15 195.652942 
L 334.125 197.619784 
L 337.6125 196.858688 
L 341.1 195.957552 
L 344.5875 196.173317 
L 348.075 195.551406 
L 351.5625 195.551406 
L 355.05 196.054525 
L 358.5375 195.819913 
L 362.025 195.314487 
L 365.5125 194.248354 
L 372.4875 196.43985 
L 375.975 196.93698 
L 379.4625 196.603563 
L 382.95 195.317274 
L 386.4375 194.84065 
L 389.925 193.774517 
L 393.4125 194.366813 
L 396.9 194.38075 
L 400.3875 194.84065 
L 403.875 194.28784 
L 407.3625 193.588367 
L 410.85 194.751806 
L 414.3375 193.713424 
L 417.825 193.231468 
L 421.3125 192.940995 
L 424.8 193.419139 
L 428.2875 193.670699 
L 431.775 194.387967 
L 435.2625 194.698499 
L 438.75 194.350275 
L 442.2375 196.257423 
L 445.725 195.269085 
L 449.2125 195.767171 
L 452.7 194.779728 
L 456.1875 194.117203 
L 459.675 191.286683 
L 463.1625 192.071245 
L 466.65 192.118005 
L 470.1375 192.837612 
L 473.625 193.393755 
L 477.1125 191.953331 
L 480.6 190.77919 
L 484.0875 191.194134 
L 487.575 190.530448 
L 491.0625 189.195221 
L 494.55 189.382807 
L 498.0375 184.186611 
L 501.525 164.615401 
L 505.0125 157.334626 
L 508.5 153.321269 
L 511.9875 147.804998 
L 515.475 141.543118 
L 518.9625 132.073258 
L 522.45 121.803013 
L 525.9375 118.310667 
L 529.425 115.261209 
L 532.9125 112.063911 
L 536.4 111.201454 
L 539.8875 107.515793 
L 543.375 103.119948 
L 546.8625 98.071338 
L 550.35 99.049983 
L 553.8375 100.428269 
L 557.325 110.664228 
L 560.8125 103.216555 
L 564.3 101.061893 
L 567.7875 109.421347 
L 571.275 108.194155 
L 574.7625 99.978644 
L 578.25 106.10942 
L 581.7375 116.195489 
L 585.225 118.1814 
L 588.7125 116.106508 
L 592.2 115.097084 
L 595.6875 118.008534 
L 599.175 116.969292 
L 602.6625 111.211432 
L 606.15 113.700686 
L 609.6375 115.364186 
L 613.125 105.617178 
L 616.6125 118.087674 
L 620.1 120.630318 
L 623.5875 122.843673 
L 627.075 126.961281 
L 630.5625 130.549382 
L 634.05 142.234878 
L 637.5375 143.920591 
L 641.025 147.192178 
L 644.5125 165.781484 
L 648 193.279753 
L 648 193.279753 
" style="fill:none;opacity:0.8;stroke:#db5f57;stroke-linecap:round;stroke-width:0.8;"/>
   </g>
   <g id="patch_4">
    <path d="M 90 198.868966 
L 90 89.627586 
" style="fill:none;stroke:#262626;stroke-linecap:square;stroke-linejoin:miter;stroke-width:1.25;"/>
   </g>
   <g id="patch_5">
    <path d="M 648 198.868966 
L 648 89.627586 
" style="fill:none;stroke:#262626;stroke-linecap:square;stroke-linejoin:miter;stroke-width:1.25;"/>
   </g>
   <g id="patch_6">
    <path d="M 90 198.868966 
L 648 198.868966 
" style="fill:none;stroke:#262626;stroke-linecap:square;stroke-linejoin:miter;stroke-width:1.25;"/>
   </g>
   <g id="patch_7">
    <path d="M 90 89.627586 
L 648 89.627586 
" style="fill:none;stroke:#262626;stroke-linecap:square;stroke-linejoin:miter;stroke-width:1.25;"/>
   </g>
  </g>
  <g id="axes_3">
   <g id="patch_8">
    <path d="M 90 80.068966 
L 648 80.068966 
L 648 66.413793 
L 90 66.413793 
z
" style="fill:#ffffff;"/>
   </g>
  </g>
  <g id="axes_4">
   <g id="patch_9">
    <path d="M 90 56.855172 
L 648 56.855172 
L 648 43.2 
L 90 43.2 
z
" style="fill:#ffffff;"/>
   </g>
  </g>
 </g>
 <defs>
  <clipPath id="pad29c1f5b4">
   <rect height="109.241379" width="558" x="90" y="89.627586"/>
  </clipPath>
 </defs>
</svg>
