<?xml version="1.0" encoding="utf-8" standalone="no"?>
<!DOCTYPE svg PUBLIC "-//W3C//DTD SVG 1.1//EN"
  "http://www.w3.org/Graphics/SVG/1.1/DTD/svg11.dtd">
<!-- Created with matplotlib (http://matplotlib.org/) -->
<svg height="360pt" version="1.1" viewBox="0 0 720 360" width="720pt" xmlns="http://www.w3.org/2000/svg" xmlns:xlink="http://www.w3.org/1999/xlink">
 <defs>
  <style type="text/css">
*{stroke-linecap:butt;stroke-linejoin:round;}
  </style>
 </defs>
 <g id="figure_1">
  <g id="patch_1">
   <path d="M 0 360 
L 720 360 
L 720 0 
L 0 0 
z
" style="fill:#ffffff;"/>
  </g>
  <g id="axes_1">
   <g id="patch_2">
    <path d="M 90 320.4 
L 648 320.4 
L 648 265.77931 
L 90 265.77931 
z
" style="fill:#ffffff;"/>
   </g>
   <g id="legend_1">
    <g id="line2d_1">
     <path d="M 35.4 291.741718 
L 71.8 291.741718 
" style="fill:none;opacity:0.8;stroke:#db5f57;stroke-linecap:round;stroke-width:4;"/>
    </g>
    <g id="line2d_2"/>
    <g id="text_1">
     <text style="fill:#262626;font-family:DejaVu Sans;font-size:18.2px;font-style:normal;font-weight:400;text-anchor:start;" transform="rotate(-0, 86.36, 298.111718)" x="86.36" y="298.111718">Cell (10163 events)</text>
    </g>
   </g>
  </g>
  <g id="axes_2">
   <g id="patch_3">
    <path d="M 90 198.868966 
L 648 198.868966 
L 648 89.627586 
L 90 89.627586 
z
" style="fill:#ffffff;"/>
   </g>
   <g id="matplotlib.axis_1">
    <g id="xtick_1">
     <g id="line2d_3">
      <defs>
       <path d="M 0 0 
L 0 6 
" id="m16c06d71e4" style="stroke:#262626;stroke-width:1.3;"/>
      </defs>
      <g>
       <use style="fill:#262626;stroke:#262626;stroke-width:1.3;" x="90" xlink:href="#m16c06d71e4" y="198.868966"/>
      </g>
     </g>
     <g id="text_2">
      <text style="fill:#262626;font-family:DejaVu Sans;font-size:18.2px;font-style:normal;font-weight:400;text-anchor:middle;" transform="rotate(-0, 90, 227.798122)" x="90" y="227.798122">0</text>
     </g>
    </g>
    <g id="xtick_2">
     <g id="line2d_4">
      <g>
       <use style="fill:#262626;stroke:#262626;stroke-width:1.3;" x="159.75" xlink:href="#m16c06d71e4" y="198.868966"/>
      </g>
     </g>
     <g id="text_3">
      <text style="fill:#262626;font-family:DejaVu Sans;font-size:18.2px;font-style:normal;font-weight:400;text-anchor:middle;" transform="rotate(-0, 159.75, 227.798122)" x="159.75" y="227.798122">20</text>
     </g>
    </g>
    <g id="xtick_3">
     <g id="line2d_5">
      <g>
       <use style="fill:#262626;stroke:#262626;stroke-width:1.3;" x="229.5" xlink:href="#m16c06d71e4" y="198.868966"/>
      </g>
     </g>
     <g id="text_4">
      <text style="fill:#262626;font-family:DejaVu Sans;font-size:18.2px;font-style:normal;font-weight:400;text-anchor:middle;" transform="rotate(-0, 229.5, 227.798122)" x="229.5" y="227.798122">40</text>
     </g>
    </g>
    <g id="xtick_4">
     <g id="line2d_6">
      <g>
       <use style="fill:#262626;stroke:#262626;stroke-width:1.3;" x="299.25" xlink:href="#m16c06d71e4" y="198.868966"/>
      </g>
     </g>
     <g id="text_5">
      <text style="fill:#262626;font-family:DejaVu Sans;font-size:18.2px;font-style:normal;font-weight:400;text-anchor:middle;" transform="rotate(-0, 299.25, 227.798122)" x="299.25" y="227.798122">60</text>
     </g>
    </g>
    <g id="xtick_5">
     <g id="line2d_7">
      <g>
       <use style="fill:#262626;stroke:#262626;stroke-width:1.3;" x="369" xlink:href="#m16c06d71e4" y="198.868966"/>
      </g>
     </g>
     <g id="text_6">
      <text style="fill:#262626;font-family:DejaVu Sans;font-size:18.2px;font-style:normal;font-weight:400;text-anchor:middle;" transform="rotate(-0, 369, 227.798122)" x="369" y="227.798122">80</text>
     </g>
    </g>
    <g id="xtick_6">
     <g id="line2d_8">
      <g>
       <use style="fill:#262626;stroke:#262626;stroke-width:1.3;" x="438.75" xlink:href="#m16c06d71e4" y="198.868966"/>
      </g>
     </g>
     <g id="text_7">
      <text style="fill:#262626;font-family:DejaVu Sans;font-size:18.2px;font-style:normal;font-weight:400;text-anchor:middle;" transform="rotate(-0, 438.75, 227.798122)" x="438.75" y="227.798122">100</text>
     </g>
    </g>
    <g id="xtick_7">
     <g id="line2d_9">
      <g>
       <use style="fill:#262626;stroke:#262626;stroke-width:1.3;" x="508.5" xlink:href="#m16c06d71e4" y="198.868966"/>
      </g>
     </g>
     <g id="text_8">
      <text style="fill:#262626;font-family:DejaVu Sans;font-size:18.2px;font-style:normal;font-weight:400;text-anchor:middle;" transform="rotate(-0, 508.5, 227.798122)" x="508.5" y="227.798122">120</text>
     </g>
    </g>
    <g id="xtick_8">
     <g id="line2d_10">
      <g>
       <use style="fill:#262626;stroke:#262626;stroke-width:1.3;" x="578.25" xlink:href="#m16c06d71e4" y="198.868966"/>
      </g>
     </g>
     <g id="text_9">
      <text style="fill:#262626;font-family:DejaVu Sans;font-size:18.2px;font-style:normal;font-weight:400;text-anchor:middle;" transform="rotate(-0, 578.25, 227.798122)" x="578.25" y="227.798122">140</text>
     </g>
    </g>
    <g id="xtick_9">
     <g id="line2d_11">
      <g>
       <use style="fill:#262626;stroke:#262626;stroke-width:1.3;" x="648" xlink:href="#m16c06d71e4" y="198.868966"/>
      </g>
     </g>
     <g id="text_10">
      <text style="fill:#262626;font-family:DejaVu Sans;font-size:18.2px;font-style:normal;font-weight:400;text-anchor:middle;" transform="rotate(-0, 648, 227.798122)" x="648" y="227.798122">160</text>
     </g>
    </g>
   </g>
   <g id="matplotlib.axis_2">
    <g id="ytick_1">
     <g id="line2d_12">
      <defs>
       <path d="M 0 0 
L -6 0 
" id="m1eff90ab71" style="stroke:#262626;stroke-width:1.3;"/>
      </defs>
      <g>
       <use style="fill:#262626;stroke:#262626;stroke-width:1.3;" x="90" xlink:href="#m1eff90ab71" y="199.275453"/>
      </g>
     </g>
     <g id="text_11">
      <text style="fill:#262626;font-family:DejaVu Sans;font-size:18.2px;font-style:normal;font-weight:400;text-anchor:end;" transform="rotate(-0, 74.9, 206.190031)" x="74.9" y="206.190031">0.00</text>
     </g>
    </g>
    <g id="ytick_2">
     <g id="line2d_13">
      <g>
       <use style="fill:#262626;stroke:#262626;stroke-width:1.3;" x="90" xlink:href="#m1eff90ab71" y="162.301068"/>
      </g>
     </g>
     <g id="text_12">
      <text style="fill:#262626;font-family:DejaVu Sans;font-size:18.2px;font-style:normal;font-weight:400;text-anchor:end;" transform="rotate(-0, 74.9, 169.215646)" x="74.9" y="169.215646">0.01</text>
     </g>
    </g>
    <g id="ytick_3">
     <g id="line2d_14">
      <g>
       <use style="fill:#262626;stroke:#262626;stroke-width:1.3;" x="90" xlink:href="#m1eff90ab71" y="125.326682"/>
      </g>
     </g>
     <g id="text_13">
      <text style="fill:#262626;font-family:DejaVu Sans;font-size:18.2px;font-style:normal;font-weight:400;text-anchor:end;" transform="rotate(-0, 74.9, 132.24126)" x="74.9" y="132.24126">0.02</text>
     </g>
    </g>
   </g>
   <g id="PolyCollection_1">
    <defs>
     <path d="M 90 -161.336057 
L 90 -162.710612 
L 93.4875 -162.808784 
L 96.975 -162.437502 
L 100.4625 -163.040103 
L 103.95 -163.317164 
L 107.4375 -163.084508 
L 110.925 -162.345436 
L 114.4125 -163.347652 
L 117.9 -164.336171 
L 121.3875 -165.027744 
L 124.875 -165.63258 
L 128.3625 -166.01107 
L 131.85 -167.945617 
L 135.3375 -170.832311 
L 138.825 -172.795693 
L 142.3125 -175.758312 
L 145.8 -181.392546 
L 149.2875 -185.515838 
L 152.775 -192.117496 
L 156.2625 -193.384179 
L 159.75 -193.861751 
L 163.2375 -194.200978 
L 166.725 -194.969317 
L 170.2125 -193.843937 
L 173.7 -194.390485 
L 177.1875 -194.790839 
L 180.675 -196.619541 
L 184.1625 -199.231619 
L 187.65 -198.928357 
L 191.1375 -199.217918 
L 194.625 -201.618245 
L 198.1125 -205.15337 
L 201.6 -205.844375 
L 205.0875 -204.994238 
L 208.575 -207.262714 
L 212.0625 -210.610615 
L 215.55 -209.702616 
L 219.0375 -209.62231 
L 222.525 -213.640783 
L 226.0125 -218.207757 
L 229.5 -220.562667 
L 232.9875 -221.845481 
L 236.475 -223.73751 
L 239.9625 -224.794318 
L 243.45 -227.576806 
L 246.9375 -228.773335 
L 250.425 -231.565667 
L 253.9125 -230.915544 
L 257.4 -234.816714 
L 260.8875 -235.633566 
L 264.375 -238.367831 
L 267.8625 -244.489888 
L 271.35 -246.331049 
L 274.8375 -245.665323 
L 278.325 -244.405836 
L 281.8125 -243.377597 
L 285.3 -244.458143 
L 288.7875 -243.499123 
L 292.275 -242.096089 
L 295.7625 -240.996308 
L 299.25 -244.005694 
L 302.7375 -245.209808 
L 306.225 -247.08146 
L 309.7125 -249.204824 
L 313.2 -251.157518 
L 316.6875 -252.475159 
L 320.175 -253.190313 
L 323.6625 -253.470676 
L 327.15 -255.356736 
L 330.6375 -256.788853 
L 334.125 -258.049479 
L 337.6125 -260.495301 
L 341.1 -258.397167 
L 344.5875 -258.603158 
L 348.075 -259.01969 
L 351.5625 -258.110655 
L 355.05 -258.518407 
L 358.5375 -257.246228 
L 362.025 -259.050306 
L 365.5125 -260.51965 
L 369 -262.185756 
L 372.4875 -265.010896 
L 375.975 -267.933612 
L 379.4625 -266.110949 
L 382.95 -266.489779 
L 386.4375 -266.782393 
L 389.925 -264.01386 
L 393.4125 -262.344196 
L 396.9 -260.304803 
L 400.3875 -260.620166 
L 403.875 -260.34009 
L 407.3625 -260.222865 
L 410.85 -263.938908 
L 414.3375 -264.135963 
L 417.825 -261.545288 
L 421.3125 -258.370469 
L 424.8 -255.939877 
L 428.2875 -254.010247 
L 431.775 -255.872639 
L 435.2625 -260.712823 
L 438.75 -263.001404 
L 442.2375 -265.458014 
L 445.725 -269.225233 
L 449.2125 -267.58388 
L 452.7 -270.372414 
L 456.1875 -269.459694 
L 459.675 -269.541699 
L 463.1625 -269.031763 
L 466.65 -261.995846 
L 470.1375 -257.538575 
L 473.625 -253.72592 
L 477.1125 -244.770162 
L 480.6 -242.312341 
L 484.0875 -239.276439 
L 487.575 -228.643638 
L 491.0625 -216.898095 
L 494.55 -203.274829 
L 498.0375 -189.47943 
L 501.525 -191.184159 
L 505.0125 -190.348439 
L 508.5 -189.726889 
L 511.9875 -189.087638 
L 515.475 -191.049726 
L 518.9625 -187.786262 
L 522.45 -186.759681 
L 525.9375 -185.616258 
L 529.425 -185.070011 
L 532.9125 -184.275741 
L 536.4 -183.781701 
L 539.8875 -182.878395 
L 543.375 -182.842049 
L 546.8625 -180.460197 
L 550.35 -179.694149 
L 553.8375 -178.147779 
L 557.325 -178.336098 
L 560.8125 -175.883617 
L 564.3 -175.411081 
L 567.7875 -176.35408 
L 571.275 -175.262021 
L 574.7625 -173.523216 
L 578.25 -173.13232 
L 581.7375 -172.01855 
L 585.225 -171.787222 
L 588.7125 -171.488061 
L 592.2 -170.641945 
L 595.6875 -171.793843 
L 599.175 -172.175092 
L 602.6625 -171.273223 
L 606.15 -170.020711 
L 609.6375 -171.22049 
L 613.125 -170.195398 
L 616.6125 -170.228041 
L 620.1 -170.763531 
L 623.5875 -169.906476 
L 627.075 -168.964346 
L 630.5625 -169.055744 
L 634.05 -168.27118 
L 637.5375 -167.777153 
L 641.025 -167.12502 
L 644.5125 -167.459943 
L 648 -165.778943 
L 648 -163.40745 
L 648 -163.40745 
L 644.5125 -164.673702 
L 641.025 -164.416919 
L 637.5375 -164.918661 
L 634.05 -165.303302 
L 630.5625 -165.921219 
L 627.075 -165.848821 
L 623.5875 -166.599854 
L 620.1 -167.291396 
L 616.6125 -166.85845 
L 613.125 -166.832151 
L 609.6375 -167.662987 
L 606.15 -166.691595 
L 602.6625 -167.705989 
L 599.175 -168.44505 
L 595.6875 -168.131813 
L 592.2 -167.192849 
L 588.7125 -167.881432 
L 585.225 -168.126384 
L 581.7375 -168.316294 
L 578.25 -169.236348 
L 574.7625 -169.561336 
L 571.275 -171.018513 
L 567.7875 -171.94229 
L 564.3 -171.144237 
L 560.8125 -171.543574 
L 557.325 -173.633355 
L 553.8375 -173.471947 
L 550.35 -174.80149 
L 546.8625 -175.463431 
L 543.375 -177.534015 
L 539.8875 -177.565746 
L 536.4 -178.355567 
L 532.9125 -178.788491 
L 529.425 -179.485852 
L 525.9375 -179.96638 
L 522.45 -180.974566 
L 518.9625 -181.882279 
L 515.475 -184.782385 
L 511.9875 -183.036219 
L 508.5 -183.604309 
L 505.0125 -184.157431 
L 501.525 -184.902288 
L 498.0375 -183.384302 
L 494.55 -195.798938 
L 491.0625 -208.271878 
L 487.575 -219.13823 
L 484.0875 -229.042002 
L 480.6 -231.879499 
L 477.1125 -234.179557 
L 473.625 -242.580408 
L 470.1375 -246.165565 
L 466.65 -250.362923 
L 463.1625 -257.000874 
L 459.675 -257.482521 
L 456.1875 -257.405061 
L 452.7 -258.267306 
L 449.2125 -255.633711 
L 445.725 -257.183603 
L 442.2375 -253.627449 
L 438.75 -251.310704 
L 435.2625 -249.154071 
L 431.775 -244.598429 
L 428.2875 -242.847598 
L 424.8 -244.661661 
L 421.3125 -246.948466 
L 417.825 -249.938353 
L 414.3375 -252.380444 
L 410.85 -252.19462 
L 407.3625 -248.692573 
L 403.875 -248.802981 
L 400.3875 -249.066789 
L 396.9 -248.769746 
L 393.4125 -250.691222 
L 389.925 -252.265298 
L 386.4375 -254.877164 
L 382.95 -254.601003 
L 379.4625 -254.24351 
L 375.975 -255.963892 
L 372.4875 -253.205654 
L 369 -250.541897 
L 365.5125 -248.972109 
L 362.025 -247.588433 
L 358.5375 -245.890489 
L 355.05 -247.087716 
L 351.5625 -246.703929 
L 348.075 -247.559609 
L 344.5875 -247.167492 
L 341.1 -246.973596 
L 337.6125 -248.949174 
L 334.125 -246.646353 
L 330.6375 -245.460192 
L 327.15 -244.113311 
L 323.6625 -242.340572 
L 320.175 -242.07716 
L 316.6875 -241.405369 
L 313.2 -240.1681 
L 309.7125 -238.335681 
L 306.225 -236.344729 
L 302.7375 -234.591244 
L 299.25 -233.463892 
L 295.7625 -230.648982 
L 292.275 -231.677248 
L 288.7875 -232.989792 
L 285.3 -233.887429 
L 281.8125 -232.876071 
L 278.325 -233.83846 
L 274.8375 -235.017873 
L 271.35 -235.641529 
L 267.8625 -233.917148 
L 264.375 -228.193565 
L 260.8875 -225.642657 
L 257.4 -224.88127 
L 253.9125 -221.249558 
L 250.425 -221.854237 
L 246.9375 -219.258685 
L 243.45 -218.147777 
L 239.9625 -215.567571 
L 236.475 -214.588798 
L 232.9875 -212.838209 
L 229.5 -211.652601 
L 226.0125 -209.479017 
L 222.525 -205.275093 
L 219.0375 -201.589801 
L 215.55 -201.663312 
L 212.0625 -202.494884 
L 208.575 -199.432492 
L 205.0875 -197.363559 
L 201.6 -198.138309 
L 198.1125 -197.508523 
L 194.625 -194.294568 
L 191.1375 -192.120538 
L 187.65 -191.858761 
L 184.1625 -192.132928 
L 180.675 -189.775464 
L 177.1875 -188.130718 
L 173.7 -187.771306 
L 170.2125 -187.281056 
L 166.725 -188.291022 
L 163.2375 -187.601266 
L 159.75 -187.297027 
L 156.2625 -186.869025 
L 152.775 -185.73564 
L 149.2875 -179.877986 
L 145.8 -176.271789 
L 142.3125 -171.437567 
L 138.825 -168.957318 
L 135.3375 -167.347204 
L 131.85 -165.049409 
L 128.3625 -163.578623 
L 124.875 -163.300232 
L 121.3875 -162.863609 
L 117.9 -162.379324 
L 114.4125 -161.724419 
L 110.925 -161.131034 
L 107.4375 -161.560016 
L 103.95 -161.705117 
L 100.4625 -161.532788 
L 96.975 -161.181228 
L 93.4875 -161.393635 
L 90 -161.336057 
z
" id="m350e99f938" style="stroke:#db5f57;stroke-opacity:0.2;stroke-width:0.39;"/>
    </defs>
    <g clip-path="url(#pdcde0438af)">
     <use style="fill:#db5f57;fill-opacity:0.2;stroke:#db5f57;stroke-opacity:0.2;stroke-width:0.39;" x="0" xlink:href="#m350e99f938" y="360"/>
    </g>
   </g>
   <g id="line2d_15">
    <path clip-path="url(#pdcde0438af)" d="M 90 197.976665 
L 93.4875 197.89879 
L 96.975 198.190635 
L 100.4625 197.713555 
L 103.95 197.488859 
L 107.4375 197.677738 
L 110.925 198.261765 
L 117.9 196.642252 
L 124.875 195.533594 
L 128.3625 195.205153 
L 131.85 193.502487 
L 135.3375 190.910242 
L 138.825 189.123495 
L 142.3125 186.40206 
L 145.8 181.167833 
L 149.2875 177.303088 
L 152.775 171.073432 
L 156.2625 169.873398 
L 159.75 169.420611 
L 163.2375 169.098878 
L 166.725 168.36983 
L 170.2125 169.437504 
L 173.7 168.919105 
L 177.1875 168.539221 
L 180.675 166.802498 
L 184.1625 164.317726 
L 187.65 164.606441 
L 191.1375 164.330772 
L 194.625 162.043594 
L 198.1125 158.669054 
L 201.6 158.008658 
L 205.0875 158.821101 
L 208.575 156.652397 
L 212.0625 153.447251 
L 215.55 154.317036 
L 219.0375 154.393945 
L 222.525 150.542062 
L 226.0125 146.156613 
L 229.5 143.892366 
L 232.9875 142.658155 
L 236.475 140.836846 
L 239.9625 139.819055 
L 243.45 137.137708 
L 246.9375 135.98399 
L 250.425 133.290048 
L 253.9125 133.917449 
L 257.4 130.151008 
L 260.8875 129.361888 
L 264.375 126.719302 
L 267.8625 120.796482 
L 271.35 119.013711 
L 274.8375 119.658402 
L 278.325 120.877852 
L 281.8125 121.873166 
L 285.3 120.827214 
L 288.7875 121.755543 
L 292.275 123.113331 
L 295.7625 124.177355 
L 299.25 121.265207 
L 302.7375 120.099474 
L 306.225 118.286906 
L 309.7125 116.229747 
L 313.2 114.337191 
L 316.6875 113.059736 
L 320.175 112.366264 
L 323.6625 112.094376 
L 327.15 110.264977 
L 330.6375 108.875477 
L 334.125 107.652084 
L 337.6125 105.277763 
L 341.1 107.314619 
L 344.5875 107.114675 
L 348.075 106.710351 
L 351.5625 107.592708 
L 355.05 107.196938 
L 358.5375 108.431642 
L 362.025 106.680631 
L 365.5125 105.254121 
L 369 103.636173 
L 375.975 98.051248 
L 379.4625 99.822771 
L 386.4375 99.170221 
L 389.925 101.860421 
L 393.4125 103.482291 
L 396.9 105.462725 
L 400.3875 105.156523 
L 403.875 105.428464 
L 407.3625 105.542281 
L 410.85 101.933236 
L 414.3375 101.741797 
L 417.825 104.25818 
L 421.3125 107.340533 
L 424.8 109.699231 
L 428.2875 111.571078 
L 431.775 109.764466 
L 435.2625 105.066553 
L 438.75 102.843946 
L 442.2375 100.457268 
L 445.725 96.795582 
L 449.2125 98.391204 
L 452.7 95.68014 
L 456.1875 96.567623 
L 459.675 96.48789 
L 463.1625 96.983682 
L 466.65 103.820616 
L 470.1375 108.14793 
L 473.625 111.846836 
L 477.1125 120.52514 
L 480.6 122.90408 
L 484.0875 125.840779 
L 487.575 136.109066 
L 491.0625 147.415013 
L 498.0375 173.568134 
L 501.525 171.956776 
L 505.0125 172.747065 
L 511.9875 173.938072 
L 515.475 172.083945 
L 518.9625 175.16573 
L 525.9375 177.208681 
L 529.425 177.722068 
L 532.9125 178.467884 
L 536.4 178.931366 
L 539.8875 179.77793 
L 543.375 179.811968 
L 546.8625 182.038186 
L 550.35 182.752181 
L 553.8375 184.190137 
L 557.325 184.015274 
L 560.8125 186.286404 
L 564.3 186.722341 
L 567.7875 185.851815 
L 571.275 186.859733 
L 574.7625 188.457724 
L 578.25 188.815666 
L 581.7375 189.832578 
L 588.7125 190.315254 
L 592.2 191.082603 
L 595.6875 190.037172 
L 599.175 189.689929 
L 602.6625 190.510394 
L 606.15 191.643847 
L 609.6375 190.558262 
L 613.125 191.486226 
L 616.6125 191.456755 
L 620.1 190.972537 
L 627.075 192.593416 
L 630.5625 192.511519 
L 634.05 193.212759 
L 637.5375 193.652093 
L 641.025 194.22903 
L 644.5125 193.933178 
L 648 195.406804 
L 648 195.406804 
" style="fill:none;opacity:0.8;stroke:#db5f57;stroke-linecap:round;stroke-width:0.8;"/>
   </g>
   <g id="patch_4">
    <path d="M 90 198.868966 
L 90 89.627586 
" style="fill:none;stroke:#262626;stroke-linecap:square;stroke-linejoin:miter;stroke-width:1.25;"/>
   </g>
   <g id="patch_5">
    <path d="M 648 198.868966 
L 648 89.627586 
" style="fill:none;stroke:#262626;stroke-linecap:square;stroke-linejoin:miter;stroke-width:1.25;"/>
   </g>
   <g id="patch_6">
    <path d="M 90 198.868966 
L 648 198.868966 
" style="fill:none;stroke:#262626;stroke-linecap:square;stroke-linejoin:miter;stroke-width:1.25;"/>
   </g>
   <g id="patch_7">
    <path d="M 90 89.627586 
L 648 89.627586 
" style="fill:none;stroke:#262626;stroke-linecap:square;stroke-linejoin:miter;stroke-width:1.25;"/>
   </g>
  </g>
  <g id="axes_3">
   <g id="patch_8">
    <path d="M 90 80.068966 
L 648 80.068966 
L 648 66.413793 
L 90 66.413793 
z
" style="fill:#ffffff;"/>
   </g>
  </g>
  <g id="axes_4">
   <g id="patch_9">
    <path d="M 90 56.855172 
L 648 56.855172 
L 648 43.2 
L 90 43.2 
z
" style="fill:#ffffff;"/>
   </g>
  </g>
 </g>
 <defs>
  <clipPath id="pdcde0438af">
   <rect height="109.241379" width="558" x="90" y="89.627586"/>
  </clipPath>
 </defs>
</svg>
