<?xml version="1.0" encoding="utf-8" standalone="no"?>
<!DOCTYPE svg PUBLIC "-//W3C//DTD SVG 1.1//EN"
  "http://www.w3.org/Graphics/SVG/1.1/DTD/svg11.dtd">
<!-- Created with matplotlib (http://matplotlib.org/) -->
<svg height="360pt" version="1.1" viewBox="0 0 720 360" width="720pt" xmlns="http://www.w3.org/2000/svg" xmlns:xlink="http://www.w3.org/1999/xlink">
 <defs>
  <style type="text/css">
*{stroke-linecap:butt;stroke-linejoin:round;}
  </style>
 </defs>
 <g id="figure_1">
  <g id="patch_1">
   <path d="M 0 360 
L 720 360 
L 720 0 
L 0 0 
z
" style="fill:#ffffff;"/>
  </g>
  <g id="axes_1">
   <g id="patch_2">
    <path d="M 90 320.4 
L 648 320.4 
L 648 265.77931 
L 90 265.77931 
z
" style="fill:#ffffff;"/>
   </g>
   <g id="legend_1">
    <g id="line2d_1">
     <path d="M 35.4 291.741718 
L 71.8 291.741718 
" style="fill:none;opacity:0.8;stroke:#db5f57;stroke-linecap:round;stroke-width:4;"/>
    </g>
    <g id="line2d_2"/>
    <g id="text_1">
     <text style="fill:#262626;font-family:DejaVu Sans;font-size:18.2px;font-style:normal;font-weight:400;text-anchor:start;" transform="rotate(-0, 86.36, 298.111718)" x="86.36" y="298.111718">Cell (10163 events)</text>
    </g>
   </g>
  </g>
  <g id="axes_2">
   <g id="patch_3">
    <path d="M 90 198.868966 
L 648 198.868966 
L 648 89.627586 
L 90 89.627586 
z
" style="fill:#ffffff;"/>
   </g>
   <g id="matplotlib.axis_1">
    <g id="xtick_1">
     <g id="line2d_3">
      <defs>
       <path d="M 0 0 
L 0 6 
" id="m81d092e101" style="stroke:#262626;stroke-width:1.3;"/>
      </defs>
      <g>
       <use style="fill:#262626;stroke:#262626;stroke-width:1.3;" x="90" xlink:href="#m81d092e101" y="198.868966"/>
      </g>
     </g>
     <g id="text_2">
      <text style="fill:#262626;font-family:DejaVu Sans;font-size:18.2px;font-style:normal;font-weight:400;text-anchor:middle;" transform="rotate(-0, 90, 227.798122)" x="90" y="227.798122">0</text>
     </g>
    </g>
    <g id="xtick_2">
     <g id="line2d_4">
      <g>
       <use style="fill:#262626;stroke:#262626;stroke-width:1.3;" x="159.75" xlink:href="#m81d092e101" y="198.868966"/>
      </g>
     </g>
     <g id="text_3">
      <text style="fill:#262626;font-family:DejaVu Sans;font-size:18.2px;font-style:normal;font-weight:400;text-anchor:middle;" transform="rotate(-0, 159.75, 227.798122)" x="159.75" y="227.798122">20</text>
     </g>
    </g>
    <g id="xtick_3">
     <g id="line2d_5">
      <g>
       <use style="fill:#262626;stroke:#262626;stroke-width:1.3;" x="229.5" xlink:href="#m81d092e101" y="198.868966"/>
      </g>
     </g>
     <g id="text_4">
      <text style="fill:#262626;font-family:DejaVu Sans;font-size:18.2px;font-style:normal;font-weight:400;text-anchor:middle;" transform="rotate(-0, 229.5, 227.798122)" x="229.5" y="227.798122">40</text>
     </g>
    </g>
    <g id="xtick_4">
     <g id="line2d_6">
      <g>
       <use style="fill:#262626;stroke:#262626;stroke-width:1.3;" x="299.25" xlink:href="#m81d092e101" y="198.868966"/>
      </g>
     </g>
     <g id="text_5">
      <text style="fill:#262626;font-family:DejaVu Sans;font-size:18.2px;font-style:normal;font-weight:400;text-anchor:middle;" transform="rotate(-0, 299.25, 227.798122)" x="299.25" y="227.798122">60</text>
     </g>
    </g>
    <g id="xtick_5">
     <g id="line2d_7">
      <g>
       <use style="fill:#262626;stroke:#262626;stroke-width:1.3;" x="369" xlink:href="#m81d092e101" y="198.868966"/>
      </g>
     </g>
     <g id="text_6">
      <text style="fill:#262626;font-family:DejaVu Sans;font-size:18.2px;font-style:normal;font-weight:400;text-anchor:middle;" transform="rotate(-0, 369, 227.798122)" x="369" y="227.798122">80</text>
     </g>
    </g>
    <g id="xtick_6">
     <g id="line2d_8">
      <g>
       <use style="fill:#262626;stroke:#262626;stroke-width:1.3;" x="438.75" xlink:href="#m81d092e101" y="198.868966"/>
      </g>
     </g>
     <g id="text_7">
      <text style="fill:#262626;font-family:DejaVu Sans;font-size:18.2px;font-style:normal;font-weight:400;text-anchor:middle;" transform="rotate(-0, 438.75, 227.798122)" x="438.75" y="227.798122">100</text>
     </g>
    </g>
    <g id="xtick_7">
     <g id="line2d_9">
      <g>
       <use style="fill:#262626;stroke:#262626;stroke-width:1.3;" x="508.5" xlink:href="#m81d092e101" y="198.868966"/>
      </g>
     </g>
     <g id="text_8">
      <text style="fill:#262626;font-family:DejaVu Sans;font-size:18.2px;font-style:normal;font-weight:400;text-anchor:middle;" transform="rotate(-0, 508.5, 227.798122)" x="508.5" y="227.798122">120</text>
     </g>
    </g>
    <g id="xtick_8">
     <g id="line2d_10">
      <g>
       <use style="fill:#262626;stroke:#262626;stroke-width:1.3;" x="578.25" xlink:href="#m81d092e101" y="198.868966"/>
      </g>
     </g>
     <g id="text_9">
      <text style="fill:#262626;font-family:DejaVu Sans;font-size:18.2px;font-style:normal;font-weight:400;text-anchor:middle;" transform="rotate(-0, 578.25, 227.798122)" x="578.25" y="227.798122">140</text>
     </g>
    </g>
    <g id="xtick_9">
     <g id="line2d_11">
      <g>
       <use style="fill:#262626;stroke:#262626;stroke-width:1.3;" x="648" xlink:href="#m81d092e101" y="198.868966"/>
      </g>
     </g>
     <g id="text_10">
      <text style="fill:#262626;font-family:DejaVu Sans;font-size:18.2px;font-style:normal;font-weight:400;text-anchor:middle;" transform="rotate(-0, 648, 227.798122)" x="648" y="227.798122">160</text>
     </g>
    </g>
   </g>
   <g id="matplotlib.axis_2">
    <g id="ytick_1">
     <g id="line2d_12">
      <defs>
       <path d="M 0 0 
L -6 0 
" id="m735c08a305" style="stroke:#262626;stroke-width:1.3;"/>
      </defs>
      <g>
       <use style="fill:#262626;stroke:#262626;stroke-width:1.3;" x="90" xlink:href="#m735c08a305" y="198.990782"/>
      </g>
     </g>
     <g id="text_11">
      <text style="fill:#262626;font-family:DejaVu Sans;font-size:18.2px;font-style:normal;font-weight:400;text-anchor:end;" transform="rotate(-0, 74.9, 205.90536)" x="74.9" y="205.90536">0.00</text>
     </g>
    </g>
    <g id="ytick_2">
     <g id="line2d_13">
      <g>
       <use style="fill:#262626;stroke:#262626;stroke-width:1.3;" x="90" xlink:href="#m735c08a305" y="170.115073"/>
      </g>
     </g>
     <g id="text_12">
      <text style="fill:#262626;font-family:DejaVu Sans;font-size:18.2px;font-style:normal;font-weight:400;text-anchor:end;" transform="rotate(-0, 74.9, 177.029651)" x="74.9" y="177.029651">0.05</text>
     </g>
    </g>
    <g id="ytick_3">
     <g id="line2d_14">
      <g>
       <use style="fill:#262626;stroke:#262626;stroke-width:1.3;" x="90" xlink:href="#m735c08a305" y="141.239364"/>
      </g>
     </g>
     <g id="text_13">
      <text style="fill:#262626;font-family:DejaVu Sans;font-size:18.2px;font-style:normal;font-weight:400;text-anchor:end;" transform="rotate(-0, 74.9, 148.153942)" x="74.9" y="148.153942">0.10</text>
     </g>
    </g>
    <g id="ytick_4">
     <g id="line2d_15">
      <g>
       <use style="fill:#262626;stroke:#262626;stroke-width:1.3;" x="90" xlink:href="#m735c08a305" y="112.363655"/>
      </g>
     </g>
     <g id="text_14">
      <text style="fill:#262626;font-family:DejaVu Sans;font-size:18.2px;font-style:normal;font-weight:400;text-anchor:end;" transform="rotate(-0, 74.9, 119.278233)" x="74.9" y="119.278233">0.15</text>
     </g>
    </g>
   </g>
   <g id="PolyCollection_1">
    <defs>
     <path d="M 90 -184.675611 
L 90 -186.999592 
L 93.4875 -225.003038 
L 96.975 -246.621457 
L 100.4625 -258.019391 
L 103.95 -265.099161 
L 107.4375 -268.0671 
L 110.925 -268.806907 
L 114.4125 -265.650044 
L 117.9 -265.343922 
L 121.3875 -265.154076 
L 124.875 -264.74976 
L 128.3625 -263.157296 
L 131.85 -262.957395 
L 135.3375 -263.810764 
L 138.825 -264.949577 
L 142.3125 -266.583124 
L 145.8 -270.372414 
L 149.2875 -269.971489 
L 152.775 -268.846257 
L 156.2625 -268.662504 
L 159.75 -267.165027 
L 163.2375 -265.080062 
L 166.725 -262.8723 
L 170.2125 -260.833648 
L 173.7 -258.086858 
L 177.1875 -255.030334 
L 180.675 -251.819322 
L 184.1625 -248.159509 
L 187.65 -243.33721 
L 191.1375 -237.936969 
L 194.625 -234.501208 
L 198.1125 -230.717617 
L 201.6 -226.804736 
L 205.0875 -222.974842 
L 208.575 -219.299348 
L 212.0625 -214.70461 
L 215.55 -211.209275 
L 219.0375 -208.335345 
L 222.525 -205.700335 
L 226.0125 -203.093389 
L 229.5 -200.42539 
L 232.9875 -198.86797 
L 236.475 -197.301552 
L 239.9625 -196.280333 
L 243.45 -194.033736 
L 246.9375 -192.538193 
L 250.425 -191.350126 
L 253.9125 -189.823011 
L 257.4 -187.253426 
L 260.8875 -185.985949 
L 264.375 -184.735473 
L 267.8625 -183.688574 
L 271.35 -183.327073 
L 274.8375 -182.522106 
L 278.325 -181.386471 
L 281.8125 -180.66493 
L 285.3 -179.619646 
L 288.7875 -178.501212 
L 292.275 -177.383177 
L 295.7625 -176.906799 
L 299.25 -176.60549 
L 302.7375 -175.595328 
L 306.225 -174.476073 
L 309.7125 -173.992187 
L 313.2 -174.037658 
L 316.6875 -174.027098 
L 320.175 -173.597799 
L 323.6625 -172.945095 
L 327.15 -172.432391 
L 330.6375 -172.284431 
L 334.125 -171.356226 
L 337.6125 -170.68258 
L 341.1 -170.15052 
L 344.5875 -169.858511 
L 348.075 -169.355615 
L 351.5625 -169.116087 
L 355.05 -168.993583 
L 358.5375 -168.182014 
L 362.025 -167.937406 
L 365.5125 -168.139191 
L 369 -168.228748 
L 372.4875 -167.708085 
L 375.975 -167.127313 
L 379.4625 -166.833328 
L 382.95 -166.682147 
L 386.4375 -166.535603 
L 389.925 -166.59442 
L 393.4125 -166.455742 
L 396.9 -166.371469 
L 400.3875 -166.304585 
L 403.875 -166.253842 
L 407.3625 -166.179127 
L 410.85 -166.047109 
L 414.3375 -166.16645 
L 417.825 -166.168528 
L 421.3125 -165.72467 
L 424.8 -165.494875 
L 428.2875 -165.367429 
L 431.775 -165.029062 
L 435.2625 -164.882206 
L 438.75 -164.882223 
L 442.2375 -164.602318 
L 445.725 -164.681963 
L 449.2125 -164.640738 
L 452.7 -164.468388 
L 456.1875 -164.36775 
L 459.675 -164.170327 
L 463.1625 -164.004999 
L 466.65 -164.009113 
L 470.1375 -163.917211 
L 473.625 -163.736004 
L 477.1125 -163.860202 
L 480.6 -163.750545 
L 484.0875 -163.437205 
L 487.575 -163.327932 
L 491.0625 -163.194025 
L 494.55 -163.009296 
L 498.0375 -165.18803 
L 501.525 -165.14332 
L 505.0125 -164.789505 
L 508.5 -164.608881 
L 511.9875 -164.527491 
L 515.475 -164.603216 
L 518.9625 -164.446847 
L 522.45 -164.434488 
L 525.9375 -163.929302 
L 529.425 -163.727581 
L 532.9125 -163.476479 
L 536.4 -163.855482 
L 539.8875 -164.043901 
L 543.375 -163.601834 
L 546.8625 -163.85255 
L 550.35 -163.755025 
L 553.8375 -163.466004 
L 557.325 -163.36589 
L 560.8125 -163.137648 
L 564.3 -162.663794 
L 567.7875 -162.606233 
L 571.275 -162.962851 
L 574.7625 -163.003715 
L 578.25 -162.817185 
L 581.7375 -162.722387 
L 585.225 -162.558995 
L 588.7125 -162.6076 
L 592.2 -162.320062 
L 595.6875 -162.581097 
L 599.175 -162.428353 
L 602.6625 -162.453249 
L 606.15 -162.102416 
L 609.6375 -162.106945 
L 613.125 -162.119279 
L 616.6125 -162.431336 
L 620.1 -162.171037 
L 623.5875 -161.946836 
L 627.075 -161.878821 
L 630.5625 -162.087994 
L 634.05 -162.143302 
L 637.5375 -162.112229 
L 641.025 -162.019526 
L 644.5125 -161.697731 
L 648 -161.363632 
L 648 -161.131034 
L 648 -161.131034 
L 644.5125 -161.355028 
L 641.025 -161.594041 
L 637.5375 -161.665428 
L 634.05 -161.689556 
L 630.5625 -161.646677 
L 627.075 -161.487637 
L 623.5875 -161.538754 
L 620.1 -161.711171 
L 616.6125 -161.917247 
L 613.125 -161.670893 
L 609.6375 -161.661334 
L 606.15 -161.657828 
L 602.6625 -161.93483 
L 599.175 -161.914856 
L 595.6875 -162.038045 
L 592.2 -161.828491 
L 588.7125 -162.059568 
L 585.225 -162.020128 
L 581.7375 -162.153249 
L 578.25 -162.231143 
L 574.7625 -162.385661 
L 571.275 -162.351678 
L 567.7875 -162.058457 
L 564.3 -162.105338 
L 560.8125 -162.497526 
L 557.325 -162.689709 
L 553.8375 -162.774562 
L 550.35 -163.021201 
L 546.8625 -163.104937 
L 543.375 -162.890178 
L 539.8875 -163.26991 
L 536.4 -163.107459 
L 532.9125 -162.783458 
L 529.425 -162.997682 
L 525.9375 -163.171004 
L 522.45 -163.609143 
L 518.9625 -163.619927 
L 515.475 -163.756609 
L 511.9875 -163.690362 
L 508.5 -163.761569 
L 505.0125 -163.920001 
L 501.525 -164.231854 
L 498.0375 -164.271393 
L 494.55 -162.390308 
L 491.0625 -162.544823 
L 487.575 -162.657622 
L 484.0875 -162.75012 
L 480.6 -163.017361 
L 477.1125 -163.111518 
L 473.625 -163.004898 
L 470.1375 -163.160588 
L 466.65 -163.239854 
L 463.1625 -163.236301 
L 459.675 -163.379366 
L 456.1875 -163.550961 
L 452.7 -163.63873 
L 449.2125 -163.789471 
L 445.725 -163.825605 
L 442.2375 -163.755822 
L 438.75 -164.001536 
L 435.2625 -164.001522 
L 431.775 -164.13094 
L 428.2875 -164.430324 
L 424.8 -164.543487 
L 421.3125 -164.748044 
L 417.825 -165.14487 
L 414.3375 -165.143008 
L 410.85 -165.036105 
L 407.3625 -165.154372 
L 403.875 -165.221385 
L 400.3875 -165.266929 
L 396.9 -165.326999 
L 393.4125 -165.402747 
L 389.925 -165.527543 
L 386.4375 -165.474592 
L 382.95 -165.606581 
L 379.4625 -165.742946 
L 375.975 -166.008675 
L 372.4875 -166.535609 
L 369 -167.01002 
L 365.5125 -166.928293 
L 362.025 -166.744338 
L 358.5375 -166.967366 
L 355.05 -167.709938 
L 351.5625 -167.822348 
L 348.075 -168.042368 
L 344.5875 -168.505233 
L 341.1 -168.774541 
L 337.6125 -169.266192 
L 334.125 -169.890313 
L 330.6375 -170.75298 
L 327.15 -170.89076 
L 323.6625 -171.368718 
L 320.175 -171.978314 
L 316.6875 -172.379905 
L 313.2 -172.38979 
L 309.7125 -172.34723 
L 306.225 -172.80042 
L 302.7375 -173.850865 
L 299.25 -174.801324 
L 295.7625 -175.085231 
L 292.275 -175.534458 
L 288.7875 -176.590414 
L 285.3 -177.648879 
L 281.8125 -178.639884 
L 278.325 -179.324882 
L 274.8375 -180.404429 
L 271.35 -181.170634 
L 267.8625 -181.514983 
L 264.375 -182.51306 
L 260.8875 -183.70679 
L 257.4 -184.918379 
L 253.9125 -187.37924 
L 250.425 -188.84439 
L 246.9375 -189.985503 
L 243.45 -191.423403 
L 239.9625 -193.586263 
L 236.475 -194.570479 
L 232.9875 -196.081348 
L 229.5 -197.584917 
L 226.0125 -200.163644 
L 222.525 -202.686727 
L 219.0375 -205.240081 
L 215.55 -208.02824 
L 212.0625 -211.423512 
L 208.575 -215.89318 
L 205.0875 -219.47344 
L 201.6 -223.20826 
L 198.1125 -227.028064 
L 194.625 -230.725273 
L 191.1375 -234.085479 
L 187.65 -239.372133 
L 184.1625 -244.097973 
L 180.675 -247.687503 
L 177.1875 -250.838819 
L 173.7 -253.840155 
L 170.2125 -256.538659 
L 166.725 -258.542252 
L 163.2375 -260.712772 
L 159.75 -262.763244 
L 156.2625 -264.236343 
L 152.775 -264.417127 
L 149.2875 -265.524287 
L 145.8 -265.918816 
L 142.3125 -262.190902 
L 138.825 -260.584467 
L 135.3375 -259.464793 
L 131.85 -258.625897 
L 128.3625 -258.822398 
L 124.875 -260.387994 
L 121.3875 -260.78555 
L 117.9 -260.97223 
L 114.4125 -261.273259 
L 110.925 -264.378413 
L 107.4375 -263.650592 
L 103.95 -260.731552 
L 100.4625 -253.773889 
L 96.975 -242.590199 
L 93.4875 -221.45078 
L 90 -184.675611 
z
" id="m0981cc8bfe" style="stroke:#db5f57;stroke-opacity:0.2;stroke-width:0.39;"/>
    </defs>
    <g clip-path="url(#pd64a3c2f9b)">
     <use style="fill:#db5f57;fill-opacity:0.2;stroke:#db5f57;stroke-opacity:0.2;stroke-width:0.39;" x="0" xlink:href="#m0981cc8bfe" y="360"/>
    </g>
   </g>
   <g id="line2d_16">
    <path clip-path="url(#pd64a3c2f9b)" d="M 90 174.162398 
L 93.4875 136.773091 
L 96.975 115.394172 
L 100.4625 104.10336 
L 103.95 97.084643 
L 107.4375 94.141154 
L 110.925 93.40734 
L 114.4125 96.538349 
L 117.9 96.841924 
L 121.3875 97.030187 
L 124.875 97.431123 
L 128.3625 99.010153 
L 131.85 99.208354 
L 135.3375 98.362221 
L 138.825 97.232978 
L 142.3125 95.612987 
L 145.8 91.854385 
L 149.2875 92.252112 
L 152.775 93.368308 
L 156.2625 93.550576 
L 159.75 95.035864 
L 170.2125 101.313847 
L 173.7 104.036494 
L 177.1875 107.065423 
L 180.675 110.246588 
L 184.1625 113.871259 
L 187.65 118.645328 
L 191.1375 123.988776 
L 194.625 127.386759 
L 201.6 134.993502 
L 208.575 142.403736 
L 212.0625 146.935939 
L 215.55 150.381243 
L 219.0375 153.212287 
L 229.5 160.994847 
L 236.475 164.063984 
L 239.9625 165.066702 
L 243.45 167.27143 
L 246.9375 168.738152 
L 250.425 169.902742 
L 253.9125 171.398875 
L 257.4 173.914098 
L 264.375 176.375734 
L 267.8625 177.398222 
L 271.35 177.751147 
L 274.8375 178.536733 
L 278.325 179.644323 
L 281.8125 180.347593 
L 288.7875 182.454187 
L 292.275 183.541183 
L 295.7625 184.003985 
L 299.25 184.296593 
L 306.225 186.361753 
L 309.7125 186.830291 
L 316.6875 186.796499 
L 320.175 187.211943 
L 323.6625 187.843094 
L 327.15 188.338425 
L 330.6375 188.481294 
L 334.125 189.37673 
L 337.6125 190.025614 
L 341.1 190.537469 
L 344.5875 190.818128 
L 348.075 191.301008 
L 351.5625 191.530782 
L 355.05 191.64824 
L 358.5375 192.42531 
L 362.025 192.659128 
L 369 192.380616 
L 375.975 193.432006 
L 379.4625 193.711863 
L 386.4375 193.994903 
L 389.925 193.939018 
L 396.9 194.150766 
L 410.85 194.458393 
L 417.825 194.343301 
L 421.3125 194.763643 
L 435.2625 195.558136 
L 438.75 195.55812 
L 442.2375 195.82093 
L 445.725 195.746216 
L 449.2125 195.784895 
L 463.1625 196.37935 
L 470.1375 196.461101 
L 473.625 196.629549 
L 477.1125 196.51414 
L 480.6 196.616047 
L 484.0875 196.906337 
L 494.55 197.300198 
L 498.0375 195.270288 
L 501.525 195.312413 
L 505.0125 195.645247 
L 511.9875 195.891074 
L 515.475 195.820087 
L 518.9625 195.966613 
L 522.45 195.978184 
L 525.9375 196.449847 
L 532.9125 196.870031 
L 536.4 196.51853 
L 539.8875 196.343095 
L 543.375 196.753994 
L 546.8625 196.521256 
L 550.35 196.611887 
L 553.8375 196.879717 
L 557.325 196.972201 
L 560.8125 197.182413 
L 564.3 197.615434 
L 567.7875 197.667655 
L 571.275 197.342736 
L 574.7625 197.305312 
L 585.225 197.710439 
L 588.7125 197.666416 
L 592.2 197.925724 
L 595.6875 197.690429 
L 599.175 197.828396 
L 602.6625 197.805961 
L 606.15 198.119878 
L 613.125 198.104914 
L 616.6125 197.825708 
L 623.5875 198.257205 
L 627.075 198.316771 
L 630.5625 198.132665 
L 637.5375 198.111172 
L 641.025 198.193216 
L 648 198.752667 
L 648 198.752667 
" style="fill:none;opacity:0.8;stroke:#db5f57;stroke-linecap:round;stroke-width:0.8;"/>
   </g>
   <g id="patch_4">
    <path d="M 90 198.868966 
L 90 89.627586 
" style="fill:none;stroke:#262626;stroke-linecap:square;stroke-linejoin:miter;stroke-width:1.25;"/>
   </g>
   <g id="patch_5">
    <path d="M 648 198.868966 
L 648 89.627586 
" style="fill:none;stroke:#262626;stroke-linecap:square;stroke-linejoin:miter;stroke-width:1.25;"/>
   </g>
   <g id="patch_6">
    <path d="M 90 198.868966 
L 648 198.868966 
" style="fill:none;stroke:#262626;stroke-linecap:square;stroke-linejoin:miter;stroke-width:1.25;"/>
   </g>
   <g id="patch_7">
    <path d="M 90 89.627586 
L 648 89.627586 
" style="fill:none;stroke:#262626;stroke-linecap:square;stroke-linejoin:miter;stroke-width:1.25;"/>
   </g>
  </g>
  <g id="axes_3">
   <g id="patch_8">
    <path d="M 90 80.068966 
L 648 80.068966 
L 648 66.413793 
L 90 66.413793 
z
" style="fill:#ffffff;"/>
   </g>
  </g>
  <g id="axes_4">
   <g id="patch_9">
    <path d="M 90 56.855172 
L 648 56.855172 
L 648 43.2 
L 90 43.2 
z
" style="fill:#ffffff;"/>
   </g>
  </g>
 </g>
 <defs>
  <clipPath id="pd64a3c2f9b">
   <rect height="109.241379" width="558" x="90" y="89.627586"/>
  </clipPath>
 </defs>
</svg>
