<?xml version="1.0" encoding="utf-8" standalone="no"?>
<!DOCTYPE svg PUBLIC "-//W3C//DTD SVG 1.1//EN"
  "http://www.w3.org/Graphics/SVG/1.1/DTD/svg11.dtd">
<!-- Created with matplotlib (http://matplotlib.org/) -->
<svg height="360pt" version="1.1" viewBox="0 0 720 360" width="720pt" xmlns="http://www.w3.org/2000/svg" xmlns:xlink="http://www.w3.org/1999/xlink">
 <defs>
  <style type="text/css">
*{stroke-linecap:butt;stroke-linejoin:round;}
  </style>
 </defs>
 <g id="figure_1">
  <g id="patch_1">
   <path d="M 0 360 
L 720 360 
L 720 0 
L 0 0 
z
" style="fill:#ffffff;"/>
  </g>
  <g id="axes_1">
   <g id="patch_2">
    <path d="M 90 320.4 
L 648 320.4 
L 648 265.77931 
L 90 265.77931 
z
" style="fill:#ffffff;"/>
   </g>
   <g id="legend_1">
    <g id="line2d_1">
     <path d="M 35.4 291.741718 
L 71.8 291.741718 
" style="fill:none;opacity:0.8;stroke:#db5f57;stroke-linecap:round;stroke-width:4;"/>
    </g>
    <g id="line2d_2"/>
    <g id="text_1">
     <text style="fill:#262626;font-family:DejaVu Sans;font-size:18.2px;font-style:normal;font-weight:400;text-anchor:start;" transform="rotate(-0, 86.36, 298.111718)" x="86.36" y="298.111718">Cell (9080 events)</text>
    </g>
   </g>
  </g>
  <g id="axes_2">
   <g id="patch_3">
    <path d="M 90 198.868966 
L 648 198.868966 
L 648 89.627586 
L 90 89.627586 
z
" style="fill:#ffffff;"/>
   </g>
   <g id="matplotlib.axis_1">
    <g id="xtick_1">
     <g id="line2d_3">
      <defs>
       <path d="M 0 0 
L 0 6 
" id="mc29cb00ca4" style="stroke:#262626;stroke-width:1.3;"/>
      </defs>
      <g>
       <use style="fill:#262626;stroke:#262626;stroke-width:1.3;" x="90" xlink:href="#mc29cb00ca4" y="198.868966"/>
      </g>
     </g>
     <g id="text_2">
      <text style="fill:#262626;font-family:DejaVu Sans;font-size:18.2px;font-style:normal;font-weight:400;text-anchor:middle;" transform="rotate(-0, 90, 227.798122)" x="90" y="227.798122">0</text>
     </g>
    </g>
    <g id="xtick_2">
     <g id="line2d_4">
      <g>
       <use style="fill:#262626;stroke:#262626;stroke-width:1.3;" x="159.75" xlink:href="#mc29cb00ca4" y="198.868966"/>
      </g>
     </g>
     <g id="text_3">
      <text style="fill:#262626;font-family:DejaVu Sans;font-size:18.2px;font-style:normal;font-weight:400;text-anchor:middle;" transform="rotate(-0, 159.75, 227.798122)" x="159.75" y="227.798122">20</text>
     </g>
    </g>
    <g id="xtick_3">
     <g id="line2d_5">
      <g>
       <use style="fill:#262626;stroke:#262626;stroke-width:1.3;" x="229.5" xlink:href="#mc29cb00ca4" y="198.868966"/>
      </g>
     </g>
     <g id="text_4">
      <text style="fill:#262626;font-family:DejaVu Sans;font-size:18.2px;font-style:normal;font-weight:400;text-anchor:middle;" transform="rotate(-0, 229.5, 227.798122)" x="229.5" y="227.798122">40</text>
     </g>
    </g>
    <g id="xtick_4">
     <g id="line2d_6">
      <g>
       <use style="fill:#262626;stroke:#262626;stroke-width:1.3;" x="299.25" xlink:href="#mc29cb00ca4" y="198.868966"/>
      </g>
     </g>
     <g id="text_5">
      <text style="fill:#262626;font-family:DejaVu Sans;font-size:18.2px;font-style:normal;font-weight:400;text-anchor:middle;" transform="rotate(-0, 299.25, 227.798122)" x="299.25" y="227.798122">60</text>
     </g>
    </g>
    <g id="xtick_5">
     <g id="line2d_7">
      <g>
       <use style="fill:#262626;stroke:#262626;stroke-width:1.3;" x="369" xlink:href="#mc29cb00ca4" y="198.868966"/>
      </g>
     </g>
     <g id="text_6">
      <text style="fill:#262626;font-family:DejaVu Sans;font-size:18.2px;font-style:normal;font-weight:400;text-anchor:middle;" transform="rotate(-0, 369, 227.798122)" x="369" y="227.798122">80</text>
     </g>
    </g>
    <g id="xtick_6">
     <g id="line2d_8">
      <g>
       <use style="fill:#262626;stroke:#262626;stroke-width:1.3;" x="438.75" xlink:href="#mc29cb00ca4" y="198.868966"/>
      </g>
     </g>
     <g id="text_7">
      <text style="fill:#262626;font-family:DejaVu Sans;font-size:18.2px;font-style:normal;font-weight:400;text-anchor:middle;" transform="rotate(-0, 438.75, 227.798122)" x="438.75" y="227.798122">100</text>
     </g>
    </g>
    <g id="xtick_7">
     <g id="line2d_9">
      <g>
       <use style="fill:#262626;stroke:#262626;stroke-width:1.3;" x="508.5" xlink:href="#mc29cb00ca4" y="198.868966"/>
      </g>
     </g>
     <g id="text_8">
      <text style="fill:#262626;font-family:DejaVu Sans;font-size:18.2px;font-style:normal;font-weight:400;text-anchor:middle;" transform="rotate(-0, 508.5, 227.798122)" x="508.5" y="227.798122">120</text>
     </g>
    </g>
    <g id="xtick_8">
     <g id="line2d_10">
      <g>
       <use style="fill:#262626;stroke:#262626;stroke-width:1.3;" x="578.25" xlink:href="#mc29cb00ca4" y="198.868966"/>
      </g>
     </g>
     <g id="text_9">
      <text style="fill:#262626;font-family:DejaVu Sans;font-size:18.2px;font-style:normal;font-weight:400;text-anchor:middle;" transform="rotate(-0, 578.25, 227.798122)" x="578.25" y="227.798122">140</text>
     </g>
    </g>
    <g id="xtick_9">
     <g id="line2d_11">
      <g>
       <use style="fill:#262626;stroke:#262626;stroke-width:1.3;" x="648" xlink:href="#mc29cb00ca4" y="198.868966"/>
      </g>
     </g>
     <g id="text_10">
      <text style="fill:#262626;font-family:DejaVu Sans;font-size:18.2px;font-style:normal;font-weight:400;text-anchor:middle;" transform="rotate(-0, 648, 227.798122)" x="648" y="227.798122">160</text>
     </g>
    </g>
   </g>
   <g id="matplotlib.axis_2">
    <g id="ytick_1">
     <g id="line2d_12">
      <defs>
       <path d="M 0 0 
L -6 0 
" id="mfa1c7aade5" style="stroke:#262626;stroke-width:1.3;"/>
      </defs>
      <g>
       <use style="fill:#262626;stroke:#262626;stroke-width:1.3;" x="90" xlink:href="#mfa1c7aade5" y="153.255542"/>
      </g>
     </g>
     <g id="text_11">
      <text style="fill:#262626;font-family:DejaVu Sans;font-size:18.2px;font-style:normal;font-weight:400;text-anchor:end;" transform="rotate(-0, 74.9, 160.17012)" x="74.9" y="160.17012">0.02</text>
     </g>
    </g>
    <g id="ytick_2">
     <g id="line2d_13">
      <g>
       <use style="fill:#262626;stroke:#262626;stroke-width:1.3;" x="90" xlink:href="#mfa1c7aade5" y="106.159869"/>
      </g>
     </g>
     <g id="text_12">
      <text style="fill:#262626;font-family:DejaVu Sans;font-size:18.2px;font-style:normal;font-weight:400;text-anchor:end;" transform="rotate(-0, 74.9, 113.074447)" x="74.9" y="113.074447">0.04</text>
     </g>
    </g>
   </g>
   <g id="PolyCollection_1">
    <defs>
     <path d="M 90 -161.131034 
L 90 -162.656329 
L 93.4875 -164.638166 
L 96.975 -168.90842 
L 100.4625 -170.995903 
L 103.95 -172.145869 
L 107.4375 -174.455022 
L 110.925 -177.046454 
L 114.4125 -180.183204 
L 117.9 -182.960332 
L 121.3875 -185.411254 
L 124.875 -187.108852 
L 128.3625 -187.016323 
L 131.85 -191.777249 
L 135.3375 -197.598932 
L 138.825 -200.873099 
L 142.3125 -210.456175 
L 145.8 -221.269186 
L 149.2875 -223.903564 
L 152.775 -230.763962 
L 156.2625 -237.911648 
L 159.75 -239.168301 
L 163.2375 -244.099857 
L 166.725 -244.242779 
L 170.2125 -245.392737 
L 173.7 -246.242102 
L 177.1875 -244.828148 
L 180.675 -245.112545 
L 184.1625 -245.378266 
L 187.65 -249.557626 
L 191.1375 -247.649158 
L 194.625 -246.39062 
L 198.1125 -244.860768 
L 201.6 -246.464679 
L 205.0875 -246.749003 
L 208.575 -248.78199 
L 212.0625 -253.913235 
L 215.55 -253.973638 
L 219.0375 -254.047647 
L 222.525 -256.071536 
L 226.0125 -254.462188 
L 229.5 -255.330851 
L 232.9875 -257.492978 
L 236.475 -260.831068 
L 239.9625 -263.742689 
L 243.45 -266.52916 
L 246.9375 -268.98204 
L 250.425 -265.201415 
L 253.9125 -263.736258 
L 257.4 -263.045383 
L 260.8875 -262.887925 
L 264.375 -261.398235 
L 267.8625 -261.920719 
L 271.35 -260.725799 
L 274.8375 -262.501192 
L 278.325 -266.277837 
L 281.8125 -267.678722 
L 285.3 -266.297606 
L 288.7875 -266.531437 
L 292.275 -265.157727 
L 295.7625 -265.225178 
L 299.25 -266.284911 
L 302.7375 -266.988822 
L 306.225 -262.183426 
L 309.7125 -262.931425 
L 313.2 -265.980137 
L 316.6875 -266.626525 
L 320.175 -268.022076 
L 323.6625 -267.041231 
L 327.15 -266.581058 
L 330.6375 -266.500706 
L 334.125 -268.824493 
L 337.6125 -269.175527 
L 341.1 -268.437499 
L 344.5875 -266.5268 
L 348.075 -265.167036 
L 351.5625 -265.30139 
L 355.05 -265.679897 
L 358.5375 -265.795333 
L 362.025 -267.617066 
L 365.5125 -269.475481 
L 369 -268.263775 
L 372.4875 -270.372414 
L 375.975 -266.287935 
L 379.4625 -261.435961 
L 382.95 -259.148199 
L 386.4375 -258.111801 
L 389.925 -259.629767 
L 393.4125 -258.744569 
L 396.9 -257.049714 
L 400.3875 -256.332594 
L 403.875 -257.127659 
L 407.3625 -258.368515 
L 410.85 -259.171436 
L 414.3375 -258.683579 
L 417.825 -260.025141 
L 421.3125 -258.851721 
L 424.8 -260.373806 
L 428.2875 -260.217601 
L 431.775 -257.218501 
L 435.2625 -257.854977 
L 438.75 -256.734474 
L 442.2375 -254.04906 
L 445.725 -251.230991 
L 449.2125 -251.41998 
L 452.7 -248.789656 
L 456.1875 -249.652 
L 459.675 -251.500566 
L 463.1625 -250.312017 
L 466.65 -248.288592 
L 470.1375 -248.714495 
L 473.625 -248.546631 
L 477.1125 -247.637338 
L 480.6 -242.150167 
L 484.0875 -240.99135 
L 487.575 -237.933361 
L 491.0625 -235.263049 
L 494.55 -230.187387 
L 498.0375 -222.262414 
L 501.525 -223.689777 
L 505.0125 -221.80115 
L 508.5 -219.603778 
L 511.9875 -220.15787 
L 515.475 -216.574509 
L 518.9625 -212.511164 
L 522.45 -212.304704 
L 525.9375 -211.593304 
L 529.425 -205.966877 
L 532.9125 -206.051474 
L 536.4 -202.942253 
L 539.8875 -204.027378 
L 543.375 -208.50606 
L 546.8625 -208.453103 
L 550.35 -208.92219 
L 553.8375 -213.11275 
L 557.325 -212.767914 
L 560.8125 -211.290792 
L 564.3 -208.570422 
L 567.7875 -207.362019 
L 571.275 -205.930186 
L 574.7625 -205.033807 
L 578.25 -201.977866 
L 581.7375 -202.068667 
L 585.225 -205.773663 
L 588.7125 -207.563897 
L 592.2 -205.97145 
L 595.6875 -204.091552 
L 599.175 -202.529578 
L 602.6625 -198.256304 
L 606.15 -198.670504 
L 609.6375 -198.776629 
L 613.125 -198.873247 
L 616.6125 -198.439005 
L 620.1 -195.672923 
L 623.5875 -192.509358 
L 627.075 -193.432541 
L 630.5625 -193.359123 
L 634.05 -192.704047 
L 637.5375 -188.038418 
L 641.025 -181.736701 
L 644.5125 -175.048535 
L 648 -168.171402 
L 648 -165.449868 
L 648 -165.449868 
L 644.5125 -171.312685 
L 641.025 -177.220379 
L 637.5375 -182.891868 
L 634.05 -187.136427 
L 630.5625 -187.734917 
L 627.075 -187.802028 
L 623.5875 -186.958668 
L 620.1 -189.853296 
L 616.6125 -192.394161 
L 613.125 -192.793819 
L 609.6375 -192.704879 
L 606.15 -192.607199 
L 602.6625 -192.226072 
L 599.175 -196.166579 
L 595.6875 -197.6113 
L 592.2 -199.352924 
L 588.7125 -200.830544 
L 585.225 -199.169544 
L 581.7375 -195.740695 
L 578.25 -195.656818 
L 574.7625 -198.48387 
L 571.275 -199.314663 
L 567.7875 -200.643109 
L 564.3 -201.765531 
L 560.8125 -204.296375 
L 557.325 -205.672808 
L 553.8375 -205.994354 
L 550.35 -202.092481 
L 546.8625 -201.65651 
L 543.375 -201.70572 
L 539.8875 -197.551899 
L 536.4 -196.548059 
L 532.9125 -199.427128 
L 529.425 -199.348683 
L 525.9375 -204.578141 
L 522.45 -205.241011 
L 518.9625 -205.433452 
L 515.475 -209.226619 
L 511.9875 -212.580175 
L 508.5 -212.061131 
L 505.0125 -214.120521 
L 501.525 -215.892644 
L 498.0375 -214.553157 
L 494.55 -222.003061 
L 491.0625 -226.789615 
L 487.575 -229.312096 
L 484.0875 -232.204168 
L 480.6 -233.301015 
L 477.1125 -238.501117 
L 473.625 -239.363813 
L 470.1375 -239.523103 
L 466.65 -239.118969 
L 463.1625 -241.039485 
L 459.675 -242.168184 
L 456.1875 -240.412894 
L 452.7 -239.594428 
L 449.2125 -242.091643 
L 445.725 -241.912146 
L 442.2375 -244.5898 
L 438.75 -247.14359 
L 435.2625 -248.209781 
L 431.775 -247.604113 
L 428.2875 -250.459025 
L 424.8 -250.607787 
L 421.3125 -249.158506 
L 417.825 -250.275744 
L 414.3375 -248.998445 
L 410.85 -249.462876 
L 407.3625 -248.698544 
L 403.875 -247.517677 
L 400.3875 -246.761276 
L 396.9 -247.443514 
L 393.4125 -249.056503 
L 389.925 -249.899258 
L 386.4375 -248.454205 
L 382.95 -249.440753 
L 379.4625 -251.619508 
L 375.975 -256.244827 
L 372.4875 -260.143041 
L 369 -258.13006 
L 365.5125 -259.286668 
L 362.025 -257.512903 
L 358.5375 -255.774964 
L 355.05 -255.664865 
L 351.5625 -255.303883 
L 348.075 -255.175757 
L 344.5875 -256.472688 
L 341.1 -258.295864 
L 337.6125 -259.000321 
L 334.125 -258.665238 
L 330.6375 -256.447795 
L 327.15 -256.524447 
L 323.6625 -256.963466 
L 320.175 -257.899393 
L 316.6875 -256.567822 
L 313.2 -255.95123 
L 309.7125 -253.044468 
L 306.225 -252.331661 
L 302.7375 -256.913464 
L 299.25 -256.241943 
L 295.7625 -255.231203 
L 292.275 -255.166881 
L 288.7875 -256.477111 
L 285.3 -256.254053 
L 281.8125 -257.571737 
L 278.325 -256.235195 
L 274.8375 -252.634458 
L 271.35 -250.943033 
L 267.8625 -252.081348 
L 264.375 -251.583569 
L 260.8875 -253.003011 
L 257.4 -253.153077 
L 253.9125 -253.811597 
L 250.425 -255.208542 
L 246.9375 -258.815622 
L 243.45 -256.474938 
L 239.9625 -253.817728 
L 236.475 -251.0433 
L 232.9875 -247.86529 
L 229.5 -245.808505 
L 226.0125 -244.982543 
L 222.525 -246.512953 
L 219.0375 -244.588457 
L 215.55 -244.518105 
L 212.0625 -244.460688 
L 208.575 -239.587153 
L 205.0875 -237.658566 
L 201.6 -237.38895 
L 198.1125 -235.868521 
L 194.625 -237.318728 
L 191.1375 -238.51233 
L 187.65 -240.32331 
L 184.1625 -236.358989 
L 180.675 -236.107136 
L 177.1875 -235.837608 
L 173.7 -237.177907 
L 170.2125 -236.372706 
L 166.725 -235.282931 
L 163.2375 -235.147521 
L 159.75 -230.479609 
L 156.2625 -229.291574 
L 152.775 -222.546233 
L 149.2875 -216.093361 
L 145.8 -213.621717 
L 142.3125 -203.519328 
L 138.825 -194.63693 
L 135.3375 -191.621574 
L 131.85 -186.290691 
L 128.3625 -181.966698 
L 124.875 -182.050376 
L 121.3875 -180.517683 
L 117.9 -178.315038 
L 114.4125 -175.836011 
L 110.925 -173.061952 
L 107.4375 -170.796156 
L 103.95 -168.802502 
L 100.4625 -167.820677 
L 96.975 -166.062007 
L 93.4875 -162.609266 
L 90 -161.131034 
z
" id="mddd61f7707" style="stroke:#db5f57;stroke-opacity:0.2;stroke-width:0.39;"/>
    </defs>
    <g clip-path="url(#pb5b3a54376)">
     <use style="fill:#db5f57;fill-opacity:0.2;stroke:#db5f57;stroke-opacity:0.2;stroke-width:0.39;" x="0" xlink:href="#mddd61f7707" y="360"/>
    </g>
   </g>
   <g id="line2d_14">
    <path clip-path="url(#pb5b3a54376)" d="M 90 198.106318 
L 93.4875 196.376284 
L 96.975 192.514786 
L 100.4625 190.59171 
L 103.95 189.525815 
L 107.4375 187.374411 
L 110.925 184.945797 
L 114.4125 181.990392 
L 117.9 179.362315 
L 121.3875 177.035531 
L 124.875 175.420386 
L 128.3625 175.50849 
L 131.85 170.96603 
L 135.3375 165.389747 
L 138.825 162.244985 
L 142.3125 153.012248 
L 145.8 142.554548 
L 149.2875 140.001537 
L 152.775 133.344903 
L 156.2625 126.398389 
L 159.75 125.176045 
L 163.2375 120.376311 
L 166.725 120.237145 
L 170.2125 119.117278 
L 173.7 118.289995 
L 177.1875 119.667122 
L 184.1625 119.131373 
L 187.65 115.059532 
L 191.1375 116.919256 
L 194.625 118.145326 
L 198.1125 119.635355 
L 201.6 118.073186 
L 205.0875 117.796215 
L 208.575 115.815428 
L 212.0625 110.813039 
L 219.0375 110.681948 
L 222.525 108.707756 
L 226.0125 110.277635 
L 229.5 109.430322 
L 232.9875 107.320866 
L 236.475 104.062816 
L 243.45 98.497951 
L 246.9375 96.101169 
L 250.425 99.795021 
L 253.9125 101.226072 
L 257.4 101.90077 
L 260.8875 102.054532 
L 264.375 103.509098 
L 267.8625 102.998966 
L 271.35 104.165584 
L 274.8375 102.432175 
L 278.325 98.743484 
L 281.8125 97.37477 
L 285.3 98.72417 
L 288.7875 98.495726 
L 292.275 99.837696 
L 295.7625 99.771809 
L 299.25 98.736573 
L 302.7375 98.048857 
L 306.225 102.742456 
L 309.7125 102.012054 
L 313.2 99.034316 
L 316.6875 98.402826 
L 320.175 97.039265 
L 323.6625 97.997651 
L 327.15 98.447248 
L 330.6375 98.52575 
L 334.125 96.255135 
L 337.6125 95.912076 
L 341.1 96.633318 
L 344.5875 98.500256 
L 348.075 99.828603 
L 351.5625 99.697364 
L 355.05 99.327619 
L 358.5375 99.214851 
L 365.5125 95.618926 
L 369 96.803083 
L 372.4875 94.742273 
L 375.975 98.733619 
L 379.4625 103.472266 
L 382.95 105.705524 
L 386.4375 106.716997 
L 389.925 105.235487 
L 393.4125 106.099464 
L 396.9 107.753386 
L 400.3875 108.453065 
L 403.875 107.677332 
L 407.3625 106.466471 
L 410.85 105.682844 
L 414.3375 106.158988 
L 417.825 104.849558 
L 421.3125 105.994887 
L 424.8 104.509204 
L 428.2875 104.661687 
L 431.775 107.588693 
L 435.2625 106.967621 
L 438.75 108.060968 
L 445.725 113.428431 
L 449.2125 113.244189 
L 452.7 115.807958 
L 456.1875 114.967553 
L 459.675 113.165625 
L 463.1625 114.324249 
L 466.65 116.29622 
L 470.1375 115.881201 
L 473.625 116.044778 
L 477.1125 116.930772 
L 480.6 122.274409 
L 484.0875 123.402241 
L 487.575 126.377271 
L 491.0625 128.973668 
L 494.55 133.904776 
L 498.0375 141.592215 
L 501.525 140.208789 
L 505.0125 142.039165 
L 508.5 144.167546 
L 511.9875 143.630977 
L 515.475 147.099436 
L 518.9625 151.027692 
L 522.45 151.227142 
L 525.9375 151.914277 
L 529.425 157.34222 
L 532.9125 157.260699 
L 536.4 160.254844 
L 539.8875 159.210362 
L 543.375 154.89411 
L 546.8625 154.945193 
L 550.35 154.492665 
L 553.8375 150.446448 
L 557.325 150.779639 
L 560.8125 152.206416 
L 564.3 154.832024 
L 567.7875 155.997436 
L 571.275 157.377576 
L 574.7625 158.241161 
L 578.25 161.182658 
L 581.7375 161.095319 
L 585.225 157.528396 
L 588.7125 155.802779 
L 592.2 157.337813 
L 595.6875 159.148574 
L 599.175 160.651921 
L 602.6625 164.758812 
L 606.15 164.361149 
L 613.125 164.166467 
L 616.6125 164.583417 
L 620.1 167.236891 
L 623.5875 170.265987 
L 627.075 169.382716 
L 630.5625 169.45298 
L 634.05 170.079763 
L 637.5375 174.534857 
L 641.025 180.52146 
L 648 193.189365 
L 648 193.189365 
" style="fill:none;opacity:0.8;stroke:#db5f57;stroke-linecap:round;stroke-width:0.8;"/>
   </g>
   <g id="patch_4">
    <path d="M 90 198.868966 
L 90 89.627586 
" style="fill:none;stroke:#262626;stroke-linecap:square;stroke-linejoin:miter;stroke-width:1.25;"/>
   </g>
   <g id="patch_5">
    <path d="M 648 198.868966 
L 648 89.627586 
" style="fill:none;stroke:#262626;stroke-linecap:square;stroke-linejoin:miter;stroke-width:1.25;"/>
   </g>
   <g id="patch_6">
    <path d="M 90 198.868966 
L 648 198.868966 
" style="fill:none;stroke:#262626;stroke-linecap:square;stroke-linejoin:miter;stroke-width:1.25;"/>
   </g>
   <g id="patch_7">
    <path d="M 90 89.627586 
L 648 89.627586 
" style="fill:none;stroke:#262626;stroke-linecap:square;stroke-linejoin:miter;stroke-width:1.25;"/>
   </g>
  </g>
  <g id="axes_3">
   <g id="patch_8">
    <path d="M 90 80.068966 
L 648 80.068966 
L 648 66.413793 
L 90 66.413793 
z
" style="fill:#ffffff;"/>
   </g>
  </g>
  <g id="axes_4">
   <g id="patch_9">
    <path d="M 90 56.855172 
L 648 56.855172 
L 648 43.2 
L 90 43.2 
z
" style="fill:#ffffff;"/>
   </g>
  </g>
 </g>
 <defs>
  <clipPath id="pb5b3a54376">
   <rect height="109.241379" width="558" x="90" y="89.627586"/>
  </clipPath>
 </defs>
</svg>
